<?xml version="1.0" encoding="utf-8"?>
<!-- Generator: Adobe Illustrator 18.1.1, SVG Export Plug-In . SVG Version: 6.00 Build 0)  -->
<svg version="1.1" xmlns="http://www.w3.org/2000/svg" xmlns:xlink="http://www.w3.org/1999/xlink" x="0px" y="0px"
	 viewBox="0 0 128 128" enable-background="new 0 0 128 128" xml:space="preserve">
<symbol  id="Light_Keyboard_Primary_2" viewBox="0 -78 52 78">
	<path fill="#878A8E" d="M45-76H7c-3.9,0-7,3.1-7,7v-2c0-3.9,3.1-7,7-7h38c3.9,0,7,3.1,7,7v2C52-72.9,48.9-76,45-76z"/>
	<g>
		<path fill="#616565" d="M45-76H7c-3.9,0-7,3.1-7,7v62c0,3.9,3.1,7,7,7h38c3.9,0,7-3.1,7-7v-62C52-72.9,48.9-76,45-76z"/>
	</g>
</symbol>
<symbol  id="Light_Keyboard_Secondary_Inactive_2" viewBox="0 -78 52 78">
	<path fill="#878A8E" d="M48.9-74.8c-0.2-0.1-0.4-0.2-0.6-0.4c-1-0.5-2.1-0.8-3.3-0.8H7c-1.2,0-2.3,0.3-3.3,0.8
		c-0.2,0.1-0.4,0.2-0.6,0.4c-1.7,1.1-2.8,3-3.1,5.1c0,0.2,0,0.5,0,0.7v-2c0-3.9,3.1-7,7-7h38c3.9,0,7,3.1,7,7v2c0-0.2,0-0.5,0-0.7
		C51.7-71.8,50.6-73.7,48.9-74.8z"/>
	<g>
		<path fill="#616565" d="M45-76H7c-3.9,0-7,3.1-7,7v62c0,3.9,3.1,7,7,7h38c3.9,0,7-3.1,7-7v-62C52-72.9,48.9-76,45-76z"/>
	</g>
</symbol>
<g id="IconGrids" display="none">
	<g display="inline">
		<rect x="0.1" y="0.1" fill="#FFFFFF" width="127.8" height="127.8"/>
		<g>
			<path fill="#E6E7E8" d="M128,128H0V0h128V128z M0.2,127.8h127.5V0.2H0.2V127.8z"/>
			<rect x="0.1" y="125.1" fill="#E6E7E8" width="127.8" height="0.2"/>
			<rect x="0.1" y="122.4" fill="#E6E7E8" width="127.8" height="0.2"/>
			<rect x="0.1" y="119.8" fill="#E6E7E8" width="127.8" height="0.2"/>
			<rect x="0.1" y="117.1" fill="#E6E7E8" width="127.8" height="0.2"/>
			<rect x="0.1" y="114.4" fill="#E6E7E8" width="127.8" height="0.2"/>
			<rect x="0.1" y="111.8" fill="#E6E7E8" width="127.8" height="0.2"/>
			<rect x="0.1" y="109.1" fill="#E6E7E8" width="127.8" height="0.2"/>
			<rect x="0.1" y="106.5" fill="#E6E7E8" width="127.8" height="0.2"/>
			<rect x="0.1" y="103.8" fill="#E6E7E8" width="127.8" height="0.2"/>
			<rect x="0.1" y="101.1" fill="#E6E7E8" width="127.8" height="0.2"/>
			<rect x="0.1" y="98.5" fill="#E6E7E8" width="127.8" height="0.2"/>
			<rect x="0.1" y="95.8" fill="#E6E7E8" width="127.8" height="0.2"/>
			<rect x="0.1" y="93.2" fill="#E6E7E8" width="127.8" height="0.2"/>
			<rect x="0.1" y="90.5" fill="#E6E7E8" width="127.8" height="0.2"/>
			<rect x="0.1" y="87.8" fill="#E6E7E8" width="127.8" height="0.2"/>
			<rect x="0.1" y="85.2" fill="#E6E7E8" width="127.8" height="0.2"/>
			<rect x="0.1" y="82.5" fill="#D0D2D3" width="127.8" height="0.2"/>
			<rect x="0.1" y="79.8" fill="#E6E7E8" width="127.8" height="0.2"/>
			<rect x="0.1" y="77.2" fill="#E6E7E8" width="127.8" height="0.2"/>
			<rect x="0.1" y="74.5" fill="#E6E7E8" width="127.8" height="0.2"/>
			<rect x="0.1" y="71.9" fill="#E6E7E8" width="127.8" height="0.2"/>
			<rect x="0.1" y="69.2" fill="#E6E7E8" width="127.8" height="0.2"/>
			<rect x="0.1" y="66.5" fill="#E6E7E8" width="127.8" height="0.2"/>
			<rect x="0.1" y="61.2" fill="#E6E7E8" width="127.8" height="0.2"/>
			<rect x="0.1" y="58.6" fill="#E6E7E8" width="127.8" height="0.2"/>
			<rect x="0.1" y="55.9" fill="#E6E7E8" width="127.8" height="0.2"/>
			<rect x="0.1" y="53.2" fill="#E6E7E8" width="127.8" height="0.2"/>
			<rect x="0.1" y="50.6" fill="#E6E7E8" width="127.8" height="0.2"/>
			<rect x="0.1" y="47.9" fill="#E6E7E8" width="127.8" height="0.2"/>
			<rect x="0.1" y="45.2" fill="#D0D2D3" width="127.8" height="0.2"/>
			<rect x="0.1" y="42.6" fill="#E6E7E8" width="127.8" height="0.2"/>
			<rect x="0.1" y="39.9" fill="#E6E7E8" width="127.8" height="0.2"/>
			<rect x="0.1" y="37.3" fill="#E6E7E8" width="127.8" height="0.2"/>
			<rect x="0.1" y="34.6" fill="#E6E7E8" width="127.8" height="0.2"/>
			<rect x="0.1" y="31.9" fill="#E6E7E8" width="127.8" height="0.2"/>
			<rect x="0.1" y="29.3" fill="#E6E7E8" width="127.8" height="0.2"/>
			<rect x="0.1" y="26.6" fill="#E6E7E8" width="127.8" height="0.2"/>
			<rect x="0.1" y="24" fill="#E6E7E8" width="127.8" height="0.2"/>
			<rect x="0.1" y="21.3" fill="#E6E7E8" width="127.8" height="0.2"/>
			<rect x="0.1" y="18.6" fill="#E6E7E8" width="127.8" height="0.2"/>
			<rect x="0.1" y="16" fill="#E6E7E8" width="127.8" height="0.2"/>
			<rect x="0.1" y="13.3" fill="#E6E7E8" width="127.8" height="0.2"/>
			<rect x="0.1" y="10.6" fill="#E6E7E8" width="127.8" height="0.2"/>
			<rect x="0.1" y="8" fill="#E6E7E8" width="127.8" height="0.2"/>
			<rect x="0.1" y="5.3" fill="#E6E7E8" width="127.8" height="0.2"/>
			<rect x="0.1" y="2.7" fill="#E6E7E8" width="127.8" height="0.2"/>
			<rect x="125.1" y="0.1" fill="#E6E7E8" width="0.2" height="127.8"/>
			<rect x="122.4" y="0.1" fill="#E6E7E8" width="0.2" height="127.8"/>
			<rect x="119.8" y="0.1" fill="#E6E7E8" width="0.2" height="127.8"/>
			<rect x="117.1" y="0.1" fill="#E6E7E8" width="0.2" height="127.8"/>
			<rect x="114.4" y="0.1" fill="#E6E7E8" width="0.2" height="127.8"/>
			<rect x="111.8" y="0.1" fill="#E6E7E8" width="0.2" height="127.8"/>
			<rect x="109.1" y="0.1" fill="#E6E7E8" width="0.2" height="127.8"/>
			<rect x="106.5" y="0.1" fill="#E6E7E8" width="0.2" height="127.8"/>
			<rect x="103.8" y="0.1" fill="#E6E7E8" width="0.2" height="127.8"/>
			<rect x="101.1" y="0.1" fill="#E6E7E8" width="0.2" height="127.8"/>
			<rect x="98.5" y="0.1" fill="#E6E7E8" width="0.2" height="127.8"/>
			<rect x="95.8" y="0.1" fill="#E6E7E8" width="0.2" height="127.8"/>
			<rect x="93.2" y="0.1" fill="#E6E7E8" width="0.2" height="127.8"/>
			<rect x="90.5" y="0.1" fill="#E6E7E8" width="0.2" height="127.8"/>
			<rect x="87.8" y="0.1" fill="#E6E7E8" width="0.2" height="127.8"/>
			<rect x="85.2" y="0.1" fill="#E6E7E8" width="0.2" height="127.8"/>
			<rect x="82.5" y="0.1" fill="#D0D2D3" width="0.2" height="127.8"/>
			<rect x="79.8" y="0.1" fill="#E6E7E8" width="0.2" height="127.8"/>
			<rect x="77.2" y="0.1" fill="#E6E7E8" width="0.2" height="127.8"/>
			<rect x="74.5" y="0.1" fill="#E6E7E8" width="0.2" height="127.8"/>
			<rect x="71.9" y="0.1" fill="#E6E7E8" width="0.2" height="127.8"/>
			<rect x="69.2" y="0.1" fill="#E6E7E8" width="0.2" height="127.8"/>
			<rect x="66.5" y="0.1" fill="#E6E7E8" width="0.2" height="127.8"/>
			<rect x="61.2" y="0.1" fill="#E6E7E8" width="0.2" height="127.8"/>
			<rect x="58.6" y="0.1" fill="#E6E7E8" width="0.2" height="127.8"/>
			<rect x="55.9" y="0.1" fill="#E6E7E8" width="0.2" height="127.8"/>
			<rect x="53.2" y="0.1" fill="#E6E7E8" width="0.2" height="127.8"/>
			<rect x="50.6" y="0.1" fill="#E6E7E8" width="0.2" height="127.8"/>
			<rect x="47.9" y="0.1" fill="#E6E7E8" width="0.2" height="127.8"/>
			<rect x="45.2" y="0.1" fill="#D0D2D3" width="0.2" height="127.8"/>
			<rect x="42.6" y="0.1" fill="#E6E7E8" width="0.2" height="127.8"/>
			<rect x="39.9" y="0.1" fill="#E6E7E8" width="0.2" height="127.8"/>
			<rect x="37.3" y="0.1" fill="#E6E7E8" width="0.2" height="127.8"/>
			<rect x="34.6" y="0.1" fill="#E6E7E8" width="0.2" height="127.8"/>
			<rect x="31.9" y="0.1" fill="#E6E7E8" width="0.2" height="127.8"/>
			<rect x="29.3" y="0.1" fill="#E6E7E8" width="0.2" height="127.8"/>
			<rect x="26.6" y="0.1" fill="#E6E7E8" width="0.2" height="127.8"/>
			<rect x="24" y="0.1" fill="#E6E7E8" width="0.2" height="127.8"/>
			<rect x="21.3" y="0.1" fill="#E6E7E8" width="0.2" height="127.8"/>
			<rect x="18.6" y="0.1" fill="#E6E7E8" width="0.2" height="127.8"/>
			<rect x="16" y="0.1" fill="#E6E7E8" width="0.2" height="127.8"/>
			<rect x="13.3" y="0.1" fill="#E6E7E8" width="0.2" height="127.8"/>
			<rect x="10.6" y="0.1" fill="#E6E7E8" width="0.2" height="127.8"/>
			<rect x="8" y="0.1" fill="#E6E7E8" width="0.2" height="127.8"/>
			<rect x="5.3" y="0.1" fill="#E6E7E8" width="0.2" height="127.8"/>
			<rect x="2.7" y="0.1" fill="#E6E7E8" width="0.2" height="127.8"/>
			<rect x="0.1" y="63.9" fill="#D0D2D3" width="127.8" height="0.2"/>
			<rect x="63.9" y="0.1" fill="#D0D2D3" width="0.2" height="127.8"/>
			
				<rect x="63.9" y="-26.3" transform="matrix(0.7071 0.7071 -0.7071 0.7071 64 -26.5097)" fill="#D0D2D3" width="0.2" height="180.7"/>
			
				<rect x="-26.3" y="63.9" transform="matrix(0.7071 0.7071 -0.7071 0.7071 64 -26.5097)" fill="#D0D2D3" width="180.7" height="0.2"/>
			<path fill="#D0D2D3" d="M64,90.7c-14.7,0-26.7-12-26.7-26.7s12-26.7,26.7-26.7s26.7,12,26.7,26.7S78.7,90.7,64,90.7z M64,37.5
				c-14.6,0-26.5,11.9-26.5,26.5S49.4,90.5,64,90.5c14.6,0,26.5-11.9,26.5-26.5S78.6,37.5,64,37.5z"/>
		</g>
		<path fill="#BBBDBF" d="M98.5,122.7H29.4c-4.5,0-8.1-3.6-8.1-8.1V13.5c0-4.5,3.6-8.1,8.1-8.1h69.1c4.5,0,8.1,3.6,8.1,8.1v101.1
			C106.7,119,103,122.7,98.5,122.7z M29.4,5.6c-4.3,0-7.9,3.5-7.9,7.9v101.1c0,4.3,3.5,7.9,7.9,7.9h69.1c4.3,0,7.9-3.5,7.9-7.9V13.5
			c0-4.3-3.5-7.9-7.9-7.9H29.4z"/>
		<path fill="#BBBDBF" d="M114.5,106.7H13.4c-4.5,0-8.1-3.6-8.1-8.1V29.5c0-4.5,3.6-8.1,8.1-8.1h101.1c4.5,0,8.1,3.6,8.1,8.1v69.1
			C122.6,103,119,106.7,114.5,106.7z M13.4,21.6c-4.3,0-7.9,3.5-7.9,7.9v69.1c0,4.3,3.5,7.9,7.9,7.9h101.1c4.3,0,7.9-3.5,7.9-7.9
			V29.5c0-4.3-3.5-7.9-7.9-7.9H13.4z"/>
		<path fill="#BBBDBF" d="M106.4,114.7h-85c-4.5,0-8.2-3.7-8.2-8.2v-85c0-4.5,3.7-8.2,8.2-8.2h85c4.5,0,8.2,3.7,8.2,8.2v85
			C114.6,111,111,114.7,106.4,114.7z M21.4,13.6c-4.4,0-7.9,3.6-7.9,7.9v85c0,4.4,3.6,7.9,7.9,7.9h85c4.4,0,7.9-3.6,7.9-7.9v-85
			c0-4.4-3.6-7.9-7.9-7.9H21.4z"/>
	</g>
</g>
<g id="working_Files" display="none">
</g>
<g id="IconFinals">
	<g>
		<path fill="#CBCACA" d="M80.1,55c1.1,0.8,2.4,1.3,3.8,1.3h0.1c3.5,0,6.3-2.9,6.3-6.3c0-3.5-2.8-6.3-6.3-6.3
			c-2.6,0-4.9,1.6-5.8,3.9c-0.3,0.8-0.5,1.6-0.5,2.5C77.5,52.1,78.5,53.9,80.1,55z"/>
		<path fill="#CBCACA" d="M63.3,53.5c3.9,0,7.4,2.1,9.3,5.2c0.9-0.7,1.9-1.2,3-1.6v-0.3c-1.6-1.9-2.5-4.3-2.5-6.9c0-0.5,0-1,0.1-1.5
			c-0.1-0.1-0.1-0.1-0.1-0.2c-1.7-1.7-3.8-2.6-6.2-2.6h-3.6h-0.1h-3.6c-2.5,0-4.7,1.1-6.3,2.7c0.1,0.5,0.1,1,0.1,1.5
			c0,2.6-1,5-2.5,6.9v0.3c1.1,0.4,2.1,0.9,3,1.6C55.9,55.6,59.4,53.5,63.3,53.5z"/>
		<path fill="#CBCACA" d="M69.4,62.1c-1-2.4-3.4-4.1-6.1-4.1c-2.8,0-5.1,1.7-6.1,4.1c0,0.1-0.1,0.1-0.1,0.2
			c-0.3,0.7-0.4,1.4-0.4,2.2c0,0,0,0.1,0,0.1c0,0.8,0.1,1.5,0.4,2.2c0.5,1.3,1.3,2.4,2.4,3.2c1.1,0.8,2.4,1.2,3.8,1.2h0.1
			c1.4,0,2.7-0.5,3.8-1.2c1.1-0.8,2-1.9,2.4-3.2c0.2-0.7,0.4-1.4,0.4-2.2c0,0,0-0.1,0-0.1c0-0.8-0.2-1.5-0.4-2.2
			C69.5,62.2,69.4,62.1,69.4,62.1z"/>
		<path fill="#CBCACA" d="M63.3,41.4L63.3,41.4c3.6,0,6.4-2.9,6.4-6.3c0-3.5-2.8-6.3-6.3-6.3c-3.5,0-6.3,2.8-6.3,6.3
			C57,38.5,59.8,41.4,63.3,41.4z"/>
		<path fill="#CBCACA" d="M42.7,56.3L42.7,56.3c1.5,0,2.8-0.5,3.9-1.3c1.5-1.2,2.5-3,2.5-5.1c0-0.9-0.2-1.7-0.5-2.5
			c-1-2.3-3.2-3.9-5.8-3.9c-3.5,0-6.3,2.8-6.3,6.3C36.4,53.5,39.2,56.3,42.7,56.3z"/>
		<path fill="#CBCACA" d="M55.1,71.8c-1.6-1.7-2.6-4-2.7-6.5c0-0.3,0-0.6,0-0.8c0-0.5,0-0.9,0.1-1.4c-0.1-0.1-0.2-0.2-0.3-0.3
			c-0.5-0.4-1.1-0.8-1.6-1.1c-1-0.5-2.1-0.9-3.2-1c-0.3,0-0.5,0-0.8,0h-3.6h-0.1h-3.6c-4.8,0-8.7,3.9-8.7,8.7v3.3
			c0,1.2,0.7,2.4,1.8,2.9c1.8,1,5.2,2.2,10.6,2.2c2.2,0,4-0.2,5.6-0.5C49.9,74.8,52.3,72.9,55.1,71.8L55.1,71.8z"/>
		<path fill="#CBCACA" d="M64,5C31.4,5,5,31.4,5,64s26.4,59,59,59c32.6,0,59-26.4,59-59S96.6,5,64,5z M100.6,72.7
			c0,2.9-1.6,5.5-4.1,6.8c-2.3,1.2-6.4,2.7-12.7,2.7c-1.2,0-2.4-0.1-3.6-0.2c0.2,0.8,0.2,1.7,0.2,2.6V88c0,2.9-1.6,5.6-4.2,7
			c-2.4,1.3-6.6,2.7-13,2.7c-5.2,0-9.5-0.9-13-2.7c-2.6-1.4-4.2-4-4.2-7v-3.4c0-0.9,0.1-1.7,0.3-2.6c-1.1,0.1-2.3,0.2-3.7,0.2
			c-5,0-9.3-0.9-12.6-2.7c-2.5-1.3-4.1-4-4.1-6.8v-3.3c0-5.7,3.7-10.5,8.7-12.4C33,55.2,32,52.7,32,50c0-5.9,4.8-10.7,10.7-10.7
			c3.7,0,7.1,1.9,9,4.9c1.1-0.8,2.3-1.5,3.6-1.9c-1.7-1.9-2.7-4.4-2.7-7.1c0-5.9,4.8-10.7,10.7-10.7c5.9,0,10.7,4.8,10.7,10.7
			c0,2.7-1,5.2-2.7,7.1c1.3,0.5,2.5,1.1,3.6,1.9c1.9-2.9,5.2-4.8,9-4.8c5.9,0,10.7,4.8,10.7,10.7c0,2.7-1,5.2-2.7,7.1
			c1.8,0.6,3.5,1.7,4.9,3.1c2.5,2.5,3.8,5.8,3.8,9.3V72.7z"/>
		<path fill="#CBCACA" d="M87.5,60.7h-3.6h-0.1h-3.6c-0.3,0-0.5,0-0.8,0c-1.2,0.1-2.3,0.5-3.3,1c-0.6,0.3-1.1,0.6-1.5,1
			c-0.1,0.1-0.3,0.2-0.4,0.4c0.1,0.5,0.1,0.9,0.1,1.4c0,0.3,0,0.6,0,0.8c-0.2,2.5-1.2,4.7-2.7,6.5v0.1c1.9,0.7,3.6,1.7,5,3.2
			c0.7,0.7,1.3,1.4,1.8,2.2c1.5,0.3,3.3,0.5,5.5,0.5c5.4,0,8.8-1.2,10.6-2.2c1.1-0.6,1.8-1.7,1.8-2.9v-3.2c0-2.3-0.9-4.5-2.6-6.2
			C92,61.6,89.8,60.7,87.5,60.7z"/>
		<path fill="#CBCACA" d="M73.5,78.2C73.4,78.2,73.4,78.2,73.5,78.2c-0.9-0.9-1.8-1.5-2.8-1.9c-0.9-0.4-1.9-0.6-2.9-0.7
			c-0.2,0-0.4,0-0.6,0h-3.7h-0.1h-3.7c-0.2,0-0.4,0-0.6,0c-1.1,0.1-2.1,0.3-3,0.7c-1,0.4-1.9,1.1-2.7,1.8c-0.9,0.9-1.6,1.9-2.1,3
			c-0.4,1.1-0.7,2.2-0.7,3.5V88c0,1.3,0.7,2.5,1.8,3.1c1.9,1,5.4,2.2,10.9,2.2c5.6,0,9-1.2,11-2.2c1.1-0.6,1.9-1.8,1.9-3.1v-3.3
			c0-1.2-0.2-2.4-0.7-3.4C75,80.1,74.3,79.1,73.5,78.2z"/>
	</g>
</g>
<g id="Layer_3" display="none">
</g>
<g id="IconBoxes" display="none">
</g>
<g id="Measurements" display="none">
</g>
<g id="MeasureGrid" display="none">
</g>
</svg>
