<?xml version="1.0" encoding="utf-8"?>
<!-- Generator: Adobe Illustrator 18.1.1, SVG Export Plug-In . SVG Version: 6.00 Build 0)  -->
<svg version="1.1" xmlns="http://www.w3.org/2000/svg" xmlns:xlink="http://www.w3.org/1999/xlink" x="0px" y="0px"
	 viewBox="0 0 128 128" enable-background="new 0 0 128 128" xml:space="preserve">
<symbol  id="Light_Keyboard_Primary_2" viewBox="0 -78 52 78">
	<path fill="#878A8E" d="M45-76H7c-3.9,0-7,3.1-7,7v-2c0-3.9,3.1-7,7-7h38c3.9,0,7,3.1,7,7v2C52-72.9,48.9-76,45-76z"/>
	<g>
		<path fill="#616565" d="M45-76H7c-3.9,0-7,3.1-7,7v62c0,3.9,3.1,7,7,7h38c3.9,0,7-3.1,7-7v-62C52-72.9,48.9-76,45-76z"/>
	</g>
</symbol>
<symbol  id="Light_Keyboard_Secondary_Inactive_2" viewBox="0 -78 52 78">
	<path fill="#878A8E" d="M48.9-74.8c-0.2-0.1-0.4-0.2-0.6-0.4c-1-0.5-2.1-0.8-3.3-0.8H7c-1.2,0-2.3,0.3-3.3,0.8
		c-0.2,0.1-0.4,0.2-0.6,0.4c-1.7,1.1-2.8,3-3.1,5.1c0,0.2,0,0.5,0,0.7v-2c0-3.9,3.1-7,7-7h38c3.9,0,7,3.1,7,7v2c0-0.2,0-0.5,0-0.7
		C51.7-71.8,50.6-73.7,48.9-74.8z"/>
	<g>
		<path fill="#616565" d="M45-76H7c-3.9,0-7,3.1-7,7v62c0,3.9,3.1,7,7,7h38c3.9,0,7-3.1,7-7v-62C52-72.9,48.9-76,45-76z"/>
	</g>
</symbol>
<g id="IconGrids" display="none">
	<g display="inline">
		<rect x="0.1" y="0.1" fill="#FFFFFF" width="127.8" height="127.8"/>
		<g>
			<path fill="#E6E7E8" d="M128,128H0V0h128V128z M0.2,127.8h127.5V0.2H0.2V127.8z"/>
			<rect x="0.1" y="125.1" fill="#E6E7E8" width="127.8" height="0.2"/>
			<rect x="0.1" y="122.4" fill="#E6E7E8" width="127.8" height="0.2"/>
			<rect x="0.1" y="119.8" fill="#E6E7E8" width="127.8" height="0.2"/>
			<rect x="0.1" y="117.1" fill="#E6E7E8" width="127.8" height="0.2"/>
			<rect x="0.1" y="114.4" fill="#E6E7E8" width="127.8" height="0.2"/>
			<rect x="0.1" y="111.8" fill="#E6E7E8" width="127.8" height="0.2"/>
			<rect x="0.1" y="109.1" fill="#E6E7E8" width="127.8" height="0.2"/>
			<rect x="0.1" y="106.5" fill="#E6E7E8" width="127.8" height="0.2"/>
			<rect x="0.1" y="103.8" fill="#E6E7E8" width="127.8" height="0.2"/>
			<rect x="0.1" y="101.1" fill="#E6E7E8" width="127.8" height="0.2"/>
			<rect x="0.1" y="98.5" fill="#E6E7E8" width="127.8" height="0.2"/>
			<rect x="0.1" y="95.8" fill="#E6E7E8" width="127.8" height="0.2"/>
			<rect x="0.1" y="93.2" fill="#E6E7E8" width="127.8" height="0.2"/>
			<rect x="0.1" y="90.5" fill="#E6E7E8" width="127.8" height="0.2"/>
			<rect x="0.1" y="87.8" fill="#E6E7E8" width="127.8" height="0.2"/>
			<rect x="0.1" y="85.2" fill="#E6E7E8" width="127.8" height="0.2"/>
			<rect x="0.1" y="82.5" fill="#D0D2D3" width="127.8" height="0.2"/>
			<rect x="0.1" y="79.8" fill="#E6E7E8" width="127.8" height="0.2"/>
			<rect x="0.1" y="77.2" fill="#E6E7E8" width="127.8" height="0.2"/>
			<rect x="0.1" y="74.5" fill="#E6E7E8" width="127.8" height="0.2"/>
			<rect x="0.1" y="71.9" fill="#E6E7E8" width="127.8" height="0.2"/>
			<rect x="0.1" y="69.2" fill="#E6E7E8" width="127.8" height="0.2"/>
			<rect x="0.1" y="66.5" fill="#E6E7E8" width="127.8" height="0.2"/>
			<rect x="0.1" y="61.2" fill="#E6E7E8" width="127.8" height="0.2"/>
			<rect x="0.1" y="58.6" fill="#E6E7E8" width="127.8" height="0.2"/>
			<rect x="0.1" y="55.9" fill="#E6E7E8" width="127.8" height="0.2"/>
			<rect x="0.1" y="53.2" fill="#E6E7E8" width="127.8" height="0.2"/>
			<rect x="0.1" y="50.6" fill="#E6E7E8" width="127.8" height="0.2"/>
			<rect x="0.1" y="47.9" fill="#E6E7E8" width="127.8" height="0.2"/>
			<rect x="0.1" y="45.2" fill="#D0D2D3" width="127.8" height="0.2"/>
			<rect x="0.1" y="42.6" fill="#E6E7E8" width="127.8" height="0.2"/>
			<rect x="0.1" y="39.9" fill="#E6E7E8" width="127.8" height="0.2"/>
			<rect x="0.1" y="37.3" fill="#E6E7E8" width="127.8" height="0.2"/>
			<rect x="0.1" y="34.6" fill="#E6E7E8" width="127.8" height="0.2"/>
			<rect x="0.1" y="31.9" fill="#E6E7E8" width="127.8" height="0.2"/>
			<rect x="0.1" y="29.3" fill="#E6E7E8" width="127.8" height="0.2"/>
			<rect x="0.1" y="26.6" fill="#E6E7E8" width="127.8" height="0.2"/>
			<rect x="0.1" y="24" fill="#E6E7E8" width="127.8" height="0.2"/>
			<rect x="0.1" y="21.3" fill="#E6E7E8" width="127.8" height="0.2"/>
			<rect x="0.1" y="18.6" fill="#E6E7E8" width="127.8" height="0.2"/>
			<rect x="0.1" y="16" fill="#E6E7E8" width="127.8" height="0.2"/>
			<rect x="0.1" y="13.3" fill="#E6E7E8" width="127.8" height="0.2"/>
			<rect x="0.1" y="10.6" fill="#E6E7E8" width="127.8" height="0.2"/>
			<rect x="0.1" y="8" fill="#E6E7E8" width="127.8" height="0.2"/>
			<rect x="0.1" y="5.3" fill="#E6E7E8" width="127.8" height="0.2"/>
			<rect x="0.1" y="2.7" fill="#E6E7E8" width="127.8" height="0.2"/>
			<rect x="125.1" y="0.1" fill="#E6E7E8" width="0.2" height="127.8"/>
			<rect x="122.4" y="0.1" fill="#E6E7E8" width="0.2" height="127.8"/>
			<rect x="119.8" y="0.1" fill="#E6E7E8" width="0.2" height="127.8"/>
			<rect x="117.1" y="0.1" fill="#E6E7E8" width="0.2" height="127.8"/>
			<rect x="114.4" y="0.1" fill="#E6E7E8" width="0.2" height="127.8"/>
			<rect x="111.8" y="0.1" fill="#E6E7E8" width="0.2" height="127.8"/>
			<rect x="109.1" y="0.1" fill="#E6E7E8" width="0.2" height="127.8"/>
			<rect x="106.5" y="0.1" fill="#E6E7E8" width="0.2" height="127.8"/>
			<rect x="103.8" y="0.1" fill="#E6E7E8" width="0.2" height="127.8"/>
			<rect x="101.1" y="0.1" fill="#E6E7E8" width="0.2" height="127.8"/>
			<rect x="98.5" y="0.1" fill="#E6E7E8" width="0.2" height="127.8"/>
			<rect x="95.8" y="0.1" fill="#E6E7E8" width="0.2" height="127.8"/>
			<rect x="93.2" y="0.1" fill="#E6E7E8" width="0.2" height="127.8"/>
			<rect x="90.5" y="0.1" fill="#E6E7E8" width="0.2" height="127.8"/>
			<rect x="87.8" y="0.1" fill="#E6E7E8" width="0.2" height="127.8"/>
			<rect x="85.2" y="0.1" fill="#E6E7E8" width="0.2" height="127.8"/>
			<rect x="82.5" y="0.1" fill="#D0D2D3" width="0.2" height="127.8"/>
			<rect x="79.8" y="0.1" fill="#E6E7E8" width="0.2" height="127.8"/>
			<rect x="77.2" y="0.1" fill="#E6E7E8" width="0.2" height="127.8"/>
			<rect x="74.5" y="0.1" fill="#E6E7E8" width="0.2" height="127.8"/>
			<rect x="71.9" y="0.1" fill="#E6E7E8" width="0.2" height="127.8"/>
			<rect x="69.2" y="0.1" fill="#E6E7E8" width="0.2" height="127.8"/>
			<rect x="66.5" y="0.1" fill="#E6E7E8" width="0.2" height="127.8"/>
			<rect x="61.2" y="0.1" fill="#E6E7E8" width="0.2" height="127.8"/>
			<rect x="58.6" y="0.1" fill="#E6E7E8" width="0.2" height="127.8"/>
			<rect x="55.9" y="0.1" fill="#E6E7E8" width="0.2" height="127.8"/>
			<rect x="53.2" y="0.1" fill="#E6E7E8" width="0.2" height="127.8"/>
			<rect x="50.6" y="0.1" fill="#E6E7E8" width="0.2" height="127.8"/>
			<rect x="47.9" y="0.1" fill="#E6E7E8" width="0.2" height="127.8"/>
			<rect x="45.2" y="0.1" fill="#D0D2D3" width="0.2" height="127.8"/>
			<rect x="42.6" y="0.1" fill="#E6E7E8" width="0.2" height="127.8"/>
			<rect x="39.9" y="0.1" fill="#E6E7E8" width="0.2" height="127.8"/>
			<rect x="37.3" y="0.1" fill="#E6E7E8" width="0.2" height="127.8"/>
			<rect x="34.6" y="0.1" fill="#E6E7E8" width="0.2" height="127.8"/>
			<rect x="31.9" y="0.1" fill="#E6E7E8" width="0.2" height="127.8"/>
			<rect x="29.3" y="0.1" fill="#E6E7E8" width="0.2" height="127.8"/>
			<rect x="26.6" y="0.1" fill="#E6E7E8" width="0.2" height="127.8"/>
			<rect x="24" y="0.1" fill="#E6E7E8" width="0.2" height="127.8"/>
			<rect x="21.3" y="0.1" fill="#E6E7E8" width="0.2" height="127.8"/>
			<rect x="18.6" y="0.1" fill="#E6E7E8" width="0.2" height="127.8"/>
			<rect x="16" y="0.1" fill="#E6E7E8" width="0.2" height="127.8"/>
			<rect x="13.3" y="0.1" fill="#E6E7E8" width="0.2" height="127.8"/>
			<rect x="10.6" y="0.1" fill="#E6E7E8" width="0.2" height="127.8"/>
			<rect x="8" y="0.1" fill="#E6E7E8" width="0.2" height="127.8"/>
			<rect x="5.3" y="0.1" fill="#E6E7E8" width="0.2" height="127.8"/>
			<rect x="2.7" y="0.1" fill="#E6E7E8" width="0.2" height="127.8"/>
			<rect x="0.1" y="63.9" fill="#D0D2D3" width="127.8" height="0.2"/>
			<rect x="63.9" y="0.1" fill="#D0D2D3" width="0.2" height="127.8"/>
			
				<rect x="63.9" y="-26.3" transform="matrix(0.7071 0.7071 -0.7071 0.7071 64 -26.5097)" fill="#D0D2D3" width="0.2" height="180.7"/>
			
				<rect x="-26.3" y="63.9" transform="matrix(0.7071 0.7071 -0.7071 0.7071 64 -26.5097)" fill="#D0D2D3" width="180.7" height="0.2"/>
			<path fill="#D0D2D3" d="M64,90.7c-14.7,0-26.7-12-26.7-26.7s12-26.7,26.7-26.7s26.7,12,26.7,26.7S78.7,90.7,64,90.7z M64,37.5
				c-14.6,0-26.5,11.9-26.5,26.5S49.4,90.5,64,90.5c14.6,0,26.5-11.9,26.5-26.5S78.6,37.5,64,37.5z"/>
		</g>
		<path fill="#BBBDBF" d="M98.5,122.7H29.4c-4.5,0-8.1-3.6-8.1-8.1V13.5c0-4.5,3.6-8.1,8.1-8.1h69.1c4.5,0,8.1,3.6,8.1,8.1v101.1
			C106.7,119,103,122.7,98.5,122.7z M29.4,5.6c-4.3,0-7.9,3.5-7.9,7.9v101.1c0,4.3,3.5,7.9,7.9,7.9h69.1c4.3,0,7.9-3.5,7.9-7.9V13.5
			c0-4.3-3.5-7.9-7.9-7.9H29.4z"/>
		<path fill="#BBBDBF" d="M114.5,106.7H13.4c-4.5,0-8.1-3.6-8.1-8.1V29.5c0-4.5,3.6-8.1,8.1-8.1h101.1c4.5,0,8.1,3.6,8.1,8.1v69.1
			C122.6,103,119,106.7,114.5,106.7z M13.4,21.6c-4.3,0-7.9,3.5-7.9,7.9v69.1c0,4.3,3.5,7.9,7.9,7.9h101.1c4.3,0,7.9-3.5,7.9-7.9
			V29.5c0-4.3-3.5-7.9-7.9-7.9H13.4z"/>
		<path fill="#BBBDBF" d="M106.4,114.7h-85c-4.5,0-8.2-3.7-8.2-8.2v-85c0-4.5,3.7-8.2,8.2-8.2h85c4.5,0,8.2,3.7,8.2,8.2v85
			C114.6,111,111,114.7,106.4,114.7z M21.4,13.6c-4.4,0-7.9,3.6-7.9,7.9v85c0,4.4,3.6,7.9,7.9,7.9h85c4.4,0,7.9-3.6,7.9-7.9v-85
			c0-4.4-3.6-7.9-7.9-7.9H21.4z"/>
	</g>
	<g display="inline">
		<rect x="0.4" y="0.1" fill="#FFFFFF" width="127.8" height="127.8"/>
		<g>
			<path fill="#E6E7E8" d="M128.3,128H0.3V0h128V128z M0.5,127.8H128V0.2H0.5V127.8z"/>
			<rect x="0.4" y="125.1" fill="#E6E7E8" width="127.8" height="0.2"/>
			<rect x="0.4" y="122.4" fill="#E6E7E8" width="127.8" height="0.2"/>
			<rect x="0.4" y="119.8" fill="#E6E7E8" width="127.8" height="0.2"/>
			<rect x="0.4" y="117.1" fill="#E6E7E8" width="127.8" height="0.2"/>
			<rect x="0.4" y="114.4" fill="#E6E7E8" width="127.8" height="0.2"/>
			<rect x="0.4" y="111.8" fill="#E6E7E8" width="127.8" height="0.2"/>
			<rect x="0.4" y="109.1" fill="#E6E7E8" width="127.8" height="0.2"/>
			<rect x="0.4" y="106.5" fill="#E6E7E8" width="127.8" height="0.2"/>
			<rect x="0.4" y="103.8" fill="#E6E7E8" width="127.8" height="0.2"/>
			<rect x="0.4" y="101.1" fill="#E6E7E8" width="127.8" height="0.2"/>
			<rect x="0.4" y="98.5" fill="#E6E7E8" width="127.8" height="0.2"/>
			<rect x="0.4" y="95.8" fill="#E6E7E8" width="127.8" height="0.2"/>
			<rect x="0.4" y="93.2" fill="#E6E7E8" width="127.8" height="0.2"/>
			<rect x="0.4" y="90.5" fill="#E6E7E8" width="127.8" height="0.2"/>
			<rect x="0.4" y="87.8" fill="#E6E7E8" width="127.8" height="0.2"/>
			<rect x="0.4" y="85.2" fill="#E6E7E8" width="127.8" height="0.2"/>
			<rect x="0.4" y="82.5" fill="#D0D2D3" width="127.8" height="0.2"/>
			<rect x="0.4" y="79.8" fill="#E6E7E8" width="127.8" height="0.2"/>
			<rect x="0.4" y="77.2" fill="#E6E7E8" width="127.8" height="0.2"/>
			<rect x="0.4" y="74.5" fill="#E6E7E8" width="127.8" height="0.2"/>
			<rect x="0.4" y="71.9" fill="#E6E7E8" width="127.8" height="0.2"/>
			<rect x="0.4" y="69.2" fill="#E6E7E8" width="127.8" height="0.2"/>
			<rect x="0.4" y="66.5" fill="#E6E7E8" width="127.8" height="0.2"/>
			<rect x="0.4" y="61.2" fill="#E6E7E8" width="127.8" height="0.2"/>
			<rect x="0.4" y="58.6" fill="#E6E7E8" width="127.8" height="0.2"/>
			<rect x="0.4" y="55.9" fill="#E6E7E8" width="127.8" height="0.2"/>
			<rect x="0.4" y="53.2" fill="#E6E7E8" width="127.8" height="0.2"/>
			<rect x="0.4" y="50.6" fill="#E6E7E8" width="127.8" height="0.2"/>
			<rect x="0.4" y="47.9" fill="#E6E7E8" width="127.8" height="0.2"/>
			<rect x="0.4" y="45.2" fill="#D0D2D3" width="127.8" height="0.2"/>
			<rect x="0.4" y="42.6" fill="#E6E7E8" width="127.8" height="0.2"/>
			<rect x="0.4" y="39.9" fill="#E6E7E8" width="127.8" height="0.2"/>
			<rect x="0.4" y="37.3" fill="#E6E7E8" width="127.8" height="0.2"/>
			<rect x="0.4" y="34.6" fill="#E6E7E8" width="127.8" height="0.2"/>
			<rect x="0.4" y="31.9" fill="#E6E7E8" width="127.8" height="0.2"/>
			<rect x="0.4" y="29.3" fill="#E6E7E8" width="127.8" height="0.2"/>
			<rect x="0.4" y="26.6" fill="#E6E7E8" width="127.8" height="0.2"/>
			<rect x="0.4" y="24" fill="#E6E7E8" width="127.8" height="0.2"/>
			<rect x="0.4" y="21.3" fill="#E6E7E8" width="127.8" height="0.2"/>
			<rect x="0.4" y="18.6" fill="#E6E7E8" width="127.8" height="0.2"/>
			<rect x="0.4" y="16" fill="#E6E7E8" width="127.8" height="0.2"/>
			<rect x="0.4" y="13.3" fill="#E6E7E8" width="127.8" height="0.2"/>
			<rect x="0.4" y="10.6" fill="#E6E7E8" width="127.8" height="0.2"/>
			<rect x="0.4" y="8" fill="#E6E7E8" width="127.8" height="0.2"/>
			<rect x="0.4" y="5.3" fill="#E6E7E8" width="127.8" height="0.2"/>
			<rect x="0.4" y="2.7" fill="#E6E7E8" width="127.8" height="0.2"/>
			<rect x="125.4" y="0.1" fill="#E6E7E8" width="0.2" height="127.8"/>
			<rect x="122.7" y="0.1" fill="#E6E7E8" width="0.2" height="127.8"/>
			<rect x="120.1" y="0.1" fill="#E6E7E8" width="0.2" height="127.8"/>
			<rect x="117.4" y="0.1" fill="#E6E7E8" width="0.2" height="127.8"/>
			<rect x="114.7" y="0.1" fill="#E6E7E8" width="0.2" height="127.8"/>
			<rect x="112.1" y="0.1" fill="#E6E7E8" width="0.2" height="127.8"/>
			<rect x="109.4" y="0.1" fill="#E6E7E8" width="0.2" height="127.8"/>
			<rect x="106.8" y="0.1" fill="#E6E7E8" width="0.2" height="127.8"/>
			<rect x="104.1" y="0.1" fill="#E6E7E8" width="0.2" height="127.8"/>
			<rect x="101.4" y="0.1" fill="#E6E7E8" width="0.2" height="127.8"/>
			<rect x="98.8" y="0.1" fill="#E6E7E8" width="0.2" height="127.8"/>
			<rect x="96.1" y="0.1" fill="#E6E7E8" width="0.2" height="127.8"/>
			<rect x="93.4" y="0.1" fill="#E6E7E8" width="0.2" height="127.8"/>
			<rect x="90.8" y="0.1" fill="#E6E7E8" width="0.2" height="127.8"/>
			<rect x="88.1" y="0.1" fill="#E6E7E8" width="0.2" height="127.8"/>
			<rect x="85.5" y="0.1" fill="#E6E7E8" width="0.2" height="127.8"/>
			<rect x="82.8" y="0.1" fill="#D0D2D3" width="0.2" height="127.8"/>
			<rect x="80.1" y="0.1" fill="#E6E7E8" width="0.2" height="127.8"/>
			<rect x="77.5" y="0.1" fill="#E6E7E8" width="0.2" height="127.8"/>
			<rect x="74.8" y="0.1" fill="#E6E7E8" width="0.2" height="127.8"/>
			<rect x="72.2" y="0.1" fill="#E6E7E8" width="0.2" height="127.8"/>
			<rect x="69.5" y="0.1" fill="#E6E7E8" width="0.2" height="127.8"/>
			<rect x="66.8" y="0.1" fill="#E6E7E8" width="0.2" height="127.8"/>
			<rect x="61.5" y="0.1" fill="#E6E7E8" width="0.2" height="127.8"/>
			<rect x="58.8" y="0.1" fill="#E6E7E8" width="0.2" height="127.8"/>
			<rect x="56.2" y="0.1" fill="#E6E7E8" width="0.2" height="127.8"/>
			<rect x="53.5" y="0.1" fill="#E6E7E8" width="0.2" height="127.8"/>
			<rect x="50.9" y="0.1" fill="#E6E7E8" width="0.2" height="127.8"/>
			<rect x="48.2" y="0.1" fill="#E6E7E8" width="0.2" height="127.8"/>
			<rect x="45.5" y="0.1" fill="#D0D2D3" width="0.2" height="127.8"/>
			<rect x="42.9" y="0.1" fill="#E6E7E8" width="0.2" height="127.8"/>
			<rect x="40.2" y="0.1" fill="#E6E7E8" width="0.2" height="127.8"/>
			<rect x="37.6" y="0.1" fill="#E6E7E8" width="0.2" height="127.8"/>
			<rect x="34.9" y="0.1" fill="#E6E7E8" width="0.2" height="127.8"/>
			<rect x="32.2" y="0.1" fill="#E6E7E8" width="0.2" height="127.8"/>
			<rect x="29.6" y="0.1" fill="#E6E7E8" width="0.2" height="127.8"/>
			<rect x="26.9" y="0.1" fill="#E6E7E8" width="0.2" height="127.8"/>
			<rect x="24.2" y="0.1" fill="#E6E7E8" width="0.2" height="127.8"/>
			<rect x="21.6" y="0.1" fill="#E6E7E8" width="0.2" height="127.8"/>
			<rect x="18.9" y="0.1" fill="#E6E7E8" width="0.2" height="127.8"/>
			<rect x="16.3" y="0.1" fill="#E6E7E8" width="0.2" height="127.8"/>
			<rect x="13.6" y="0.1" fill="#E6E7E8" width="0.2" height="127.8"/>
			<rect x="10.9" y="0.1" fill="#E6E7E8" width="0.2" height="127.8"/>
			<rect x="8.3" y="0.1" fill="#E6E7E8" width="0.2" height="127.8"/>
			<rect x="5.6" y="0.1" fill="#E6E7E8" width="0.2" height="127.8"/>
			<rect x="3" y="0.1" fill="#E6E7E8" width="0.2" height="127.8"/>
			<rect x="0.4" y="63.9" fill="#D0D2D3" width="127.8" height="0.2"/>
			<rect x="64.2" y="0.1" fill="#D0D2D3" width="0.2" height="127.8"/>
			
				<rect x="64.2" y="-26.3" transform="matrix(0.7071 0.7071 -0.7071 0.7071 64.0854 -26.7158)" fill="#D0D2D3" width="0.2" height="180.7"/>
			
				<rect x="-26" y="63.9" transform="matrix(0.7071 0.7071 -0.7071 0.7071 64.0854 -26.7158)" fill="#D0D2D3" width="180.7" height="0.2"/>
			<path fill="#D0D2D3" d="M64.3,90.7c-14.7,0-26.7-12-26.7-26.7s12-26.7,26.7-26.7S91,49.3,91,64S79,90.7,64.3,90.7z M64.3,37.5
				c-14.6,0-26.5,11.9-26.5,26.5s11.9,26.5,26.5,26.5c14.6,0,26.5-11.9,26.5-26.5S78.9,37.5,64.3,37.5z"/>
		</g>
		<path fill="#BBBDBF" d="M98.8,122.7H29.7c-4.5,0-8.1-3.6-8.1-8.1V13.5c0-4.5,3.6-8.1,8.1-8.1h69.1c4.5,0,8.1,3.6,8.1,8.1v101.1
			C106.9,119,103.3,122.7,98.8,122.7z M29.7,5.6c-4.3,0-7.9,3.5-7.9,7.9v101.1c0,4.3,3.5,7.9,7.9,7.9h69.1c4.3,0,7.9-3.5,7.9-7.9
			V13.5c0-4.3-3.5-7.9-7.9-7.9H29.7z"/>
		<path fill="#BBBDBF" d="M114.8,106.7H13.7c-4.5,0-8.1-3.6-8.1-8.1V29.5c0-4.5,3.6-8.1,8.1-8.1h101.1c4.5,0,8.1,3.6,8.1,8.1v69.1
			C122.9,103,119.3,106.7,114.8,106.7z M13.7,21.6c-4.3,0-7.9,3.5-7.9,7.9v69.1c0,4.3,3.5,7.9,7.9,7.9h101.1c4.3,0,7.9-3.5,7.9-7.9
			V29.5c0-4.3-3.5-7.9-7.9-7.9H13.7z"/>
		<path fill="#BBBDBF" d="M106.7,114.7h-85c-4.5,0-8.2-3.7-8.2-8.2v-85c0-4.5,3.7-8.2,8.2-8.2h85c4.5,0,8.2,3.7,8.2,8.2v85
			C114.9,111,111.3,114.7,106.7,114.7z M21.7,13.6c-4.4,0-7.9,3.6-7.9,7.9v85c0,4.4,3.6,7.9,7.9,7.9h85c4.4,0,7.9-3.6,7.9-7.9v-85
			c0-4.4-3.6-7.9-7.9-7.9H21.7z"/>
	</g>
</g>
<g id="working_Files" display="none">
</g>
<g id="IconFinals">
	<path fill="#C8C8C8" d="M97.4,61.5H67.3V31.4c0-1.7-1.3-3-3-3s-3,1.3-3,3v30.1H31.2c-1.7,0-3,1.3-3,3c0,1.7,1.3,3,3,3h30.1v30.1
		c0,1.7,1.3,3,3,3s3-1.3,3-3V67.5h30.1c1.7,0,3-1.3,3-3C100.4,62.8,99,61.5,97.4,61.5z"/>
</g>
<g id="Layer_3" display="none">
</g>
<g id="IconBoxes" display="none">
	<rect x="-10.2" y="-83.6" display="inline" opacity="0.5" fill="#FFFFFF" width="128" height="128"/>
</g>
<g id="Measurements" display="none">
</g>
<g id="MeasureGrid" display="none">
</g>
</svg>
