<?xml version="1.0" encoding="utf-8"?>
<!-- Generator: Adobe Illustrator 18.1.1, SVG Export Plug-In . SVG Version: 6.00 Build 0)  -->
<svg version="1.1" xmlns="http://www.w3.org/2000/svg" xmlns:xlink="http://www.w3.org/1999/xlink" x="0px" y="0px"
	 viewBox="0 0 128 128" enable-background="new 0 0 128 128" xml:space="preserve">
<symbol  id="Light_Keyboard_Primary_2" viewBox="0 -78 52 78">
	<path fill="#878A8E" d="M45-76H7c-3.9,0-7,3.1-7,7v-2c0-3.9,3.1-7,7-7h38c3.9,0,7,3.1,7,7v2C52-72.9,48.9-76,45-76z"/>
	<g>
		<path fill="#616565" d="M45-76H7c-3.9,0-7,3.1-7,7v62c0,3.9,3.1,7,7,7h38c3.9,0,7-3.1,7-7v-62C52-72.9,48.9-76,45-76z"/>
	</g>
</symbol>
<symbol  id="Light_Keyboard_Secondary_Inactive_2" viewBox="0 -78 52 78">
	<path fill="#878A8E" d="M48.9-74.8c-0.2-0.1-0.4-0.2-0.6-0.4c-1-0.5-2.1-0.8-3.3-0.8H7c-1.2,0-2.3,0.3-3.3,0.8
		c-0.2,0.1-0.4,0.2-0.6,0.4c-1.7,1.1-2.8,3-3.1,5.1c0,0.2,0,0.5,0,0.7v-2c0-3.9,3.1-7,7-7h38c3.9,0,7,3.1,7,7v2c0-0.2,0-0.5,0-0.7
		C51.7-71.8,50.6-73.7,48.9-74.8z"/>
	<g>
		<path fill="#616565" d="M45-76H7c-3.9,0-7,3.1-7,7v62c0,3.9,3.1,7,7,7h38c3.9,0,7-3.1,7-7v-62C52-72.9,48.9-76,45-76z"/>
	</g>
</symbol>
<g id="IconGrids" display="none">
	<g display="inline">
		<rect x="0.1" y="0.1" fill="#FFFFFF" width="127.8" height="127.8"/>
		<g>
			<path fill="#E6E7E8" d="M128,128H0V0h128V128z M0.2,127.8h127.5V0.2H0.2V127.8z"/>
			<rect x="0.1" y="125.1" fill="#E6E7E8" width="127.8" height="0.2"/>
			<rect x="0.1" y="122.4" fill="#E6E7E8" width="127.8" height="0.2"/>
			<rect x="0.1" y="119.8" fill="#E6E7E8" width="127.8" height="0.2"/>
			<rect x="0.1" y="117.1" fill="#E6E7E8" width="127.8" height="0.2"/>
			<rect x="0.1" y="114.4" fill="#E6E7E8" width="127.8" height="0.2"/>
			<rect x="0.1" y="111.8" fill="#E6E7E8" width="127.8" height="0.2"/>
			<rect x="0.1" y="109.1" fill="#E6E7E8" width="127.8" height="0.2"/>
			<rect x="0.1" y="106.5" fill="#E6E7E8" width="127.8" height="0.2"/>
			<rect x="0.1" y="103.8" fill="#E6E7E8" width="127.8" height="0.2"/>
			<rect x="0.1" y="101.1" fill="#E6E7E8" width="127.8" height="0.2"/>
			<rect x="0.1" y="98.5" fill="#E6E7E8" width="127.8" height="0.2"/>
			<rect x="0.1" y="95.8" fill="#E6E7E8" width="127.8" height="0.2"/>
			<rect x="0.1" y="93.2" fill="#E6E7E8" width="127.8" height="0.2"/>
			<rect x="0.1" y="90.5" fill="#E6E7E8" width="127.8" height="0.2"/>
			<rect x="0.1" y="87.8" fill="#E6E7E8" width="127.8" height="0.2"/>
			<rect x="0.1" y="85.2" fill="#E6E7E8" width="127.8" height="0.2"/>
			<rect x="0.1" y="82.5" fill="#D0D2D3" width="127.8" height="0.2"/>
			<rect x="0.1" y="79.8" fill="#E6E7E8" width="127.8" height="0.2"/>
			<rect x="0.1" y="77.2" fill="#E6E7E8" width="127.8" height="0.2"/>
			<rect x="0.1" y="74.5" fill="#E6E7E8" width="127.8" height="0.2"/>
			<rect x="0.1" y="71.9" fill="#E6E7E8" width="127.8" height="0.2"/>
			<rect x="0.1" y="69.2" fill="#E6E7E8" width="127.8" height="0.2"/>
			<rect x="0.1" y="66.5" fill="#E6E7E8" width="127.8" height="0.2"/>
			<rect x="0.1" y="61.2" fill="#E6E7E8" width="127.8" height="0.2"/>
			<rect x="0.1" y="58.6" fill="#E6E7E8" width="127.8" height="0.2"/>
			<rect x="0.1" y="55.9" fill="#E6E7E8" width="127.8" height="0.2"/>
			<rect x="0.1" y="53.2" fill="#E6E7E8" width="127.8" height="0.2"/>
			<rect x="0.1" y="50.6" fill="#E6E7E8" width="127.8" height="0.2"/>
			<rect x="0.1" y="47.9" fill="#E6E7E8" width="127.8" height="0.2"/>
			<rect x="0.1" y="45.2" fill="#D0D2D3" width="127.8" height="0.2"/>
			<rect x="0.1" y="42.6" fill="#E6E7E8" width="127.8" height="0.2"/>
			<rect x="0.1" y="39.9" fill="#E6E7E8" width="127.8" height="0.2"/>
			<rect x="0.1" y="37.3" fill="#E6E7E8" width="127.8" height="0.2"/>
			<rect x="0.1" y="34.6" fill="#E6E7E8" width="127.8" height="0.2"/>
			<rect x="0.1" y="31.9" fill="#E6E7E8" width="127.8" height="0.2"/>
			<rect x="0.1" y="29.3" fill="#E6E7E8" width="127.8" height="0.2"/>
			<rect x="0.1" y="26.6" fill="#E6E7E8" width="127.8" height="0.2"/>
			<rect x="0.1" y="24" fill="#E6E7E8" width="127.8" height="0.2"/>
			<rect x="0.1" y="21.3" fill="#E6E7E8" width="127.8" height="0.2"/>
			<rect x="0.1" y="18.6" fill="#E6E7E8" width="127.8" height="0.2"/>
			<rect x="0.1" y="16" fill="#E6E7E8" width="127.8" height="0.2"/>
			<rect x="0.1" y="13.3" fill="#E6E7E8" width="127.8" height="0.2"/>
			<rect x="0.1" y="10.6" fill="#E6E7E8" width="127.8" height="0.2"/>
			<rect x="0.1" y="8" fill="#E6E7E8" width="127.8" height="0.2"/>
			<rect x="0.1" y="5.3" fill="#E6E7E8" width="127.8" height="0.2"/>
			<rect x="0.1" y="2.7" fill="#E6E7E8" width="127.8" height="0.2"/>
			<rect x="125.1" y="0.1" fill="#E6E7E8" width="0.2" height="127.8"/>
			<rect x="122.4" y="0.1" fill="#E6E7E8" width="0.2" height="127.8"/>
			<rect x="119.8" y="0.1" fill="#E6E7E8" width="0.2" height="127.8"/>
			<rect x="117.1" y="0.1" fill="#E6E7E8" width="0.2" height="127.8"/>
			<rect x="114.4" y="0.1" fill="#E6E7E8" width="0.2" height="127.8"/>
			<rect x="111.8" y="0.1" fill="#E6E7E8" width="0.2" height="127.8"/>
			<rect x="109.1" y="0.1" fill="#E6E7E8" width="0.2" height="127.8"/>
			<rect x="106.5" y="0.1" fill="#E6E7E8" width="0.2" height="127.8"/>
			<rect x="103.8" y="0.1" fill="#E6E7E8" width="0.2" height="127.8"/>
			<rect x="101.1" y="0.1" fill="#E6E7E8" width="0.2" height="127.8"/>
			<rect x="98.5" y="0.1" fill="#E6E7E8" width="0.2" height="127.8"/>
			<rect x="95.8" y="0.1" fill="#E6E7E8" width="0.2" height="127.8"/>
			<rect x="93.2" y="0.1" fill="#E6E7E8" width="0.2" height="127.8"/>
			<rect x="90.5" y="0.1" fill="#E6E7E8" width="0.2" height="127.8"/>
			<rect x="87.8" y="0.1" fill="#E6E7E8" width="0.2" height="127.8"/>
			<rect x="85.2" y="0.1" fill="#E6E7E8" width="0.2" height="127.8"/>
			<rect x="82.5" y="0.1" fill="#D0D2D3" width="0.2" height="127.8"/>
			<rect x="79.8" y="0.1" fill="#E6E7E8" width="0.2" height="127.8"/>
			<rect x="77.2" y="0.1" fill="#E6E7E8" width="0.2" height="127.8"/>
			<rect x="74.5" y="0.1" fill="#E6E7E8" width="0.2" height="127.8"/>
			<rect x="71.9" y="0.1" fill="#E6E7E8" width="0.2" height="127.8"/>
			<rect x="69.2" y="0.1" fill="#E6E7E8" width="0.2" height="127.8"/>
			<rect x="66.5" y="0.1" fill="#E6E7E8" width="0.2" height="127.8"/>
			<rect x="61.2" y="0.1" fill="#E6E7E8" width="0.2" height="127.8"/>
			<rect x="58.6" y="0.1" fill="#E6E7E8" width="0.2" height="127.8"/>
			<rect x="55.9" y="0.1" fill="#E6E7E8" width="0.2" height="127.8"/>
			<rect x="53.2" y="0.1" fill="#E6E7E8" width="0.2" height="127.8"/>
			<rect x="50.6" y="0.1" fill="#E6E7E8" width="0.2" height="127.8"/>
			<rect x="47.9" y="0.1" fill="#E6E7E8" width="0.2" height="127.8"/>
			<rect x="45.2" y="0.1" fill="#D0D2D3" width="0.2" height="127.8"/>
			<rect x="42.6" y="0.1" fill="#E6E7E8" width="0.2" height="127.8"/>
			<rect x="39.9" y="0.1" fill="#E6E7E8" width="0.2" height="127.8"/>
			<rect x="37.3" y="0.1" fill="#E6E7E8" width="0.2" height="127.8"/>
			<rect x="34.6" y="0.1" fill="#E6E7E8" width="0.2" height="127.8"/>
			<rect x="31.9" y="0.1" fill="#E6E7E8" width="0.2" height="127.8"/>
			<rect x="29.3" y="0.1" fill="#E6E7E8" width="0.2" height="127.8"/>
			<rect x="26.6" y="0.1" fill="#E6E7E8" width="0.2" height="127.8"/>
			<rect x="24" y="0.1" fill="#E6E7E8" width="0.2" height="127.8"/>
			<rect x="21.3" y="0.1" fill="#E6E7E8" width="0.2" height="127.8"/>
			<rect x="18.6" y="0.1" fill="#E6E7E8" width="0.2" height="127.8"/>
			<rect x="16" y="0.1" fill="#E6E7E8" width="0.2" height="127.8"/>
			<rect x="13.3" y="0.1" fill="#E6E7E8" width="0.2" height="127.8"/>
			<rect x="10.6" y="0.1" fill="#E6E7E8" width="0.2" height="127.8"/>
			<rect x="8" y="0.1" fill="#E6E7E8" width="0.2" height="127.8"/>
			<rect x="5.3" y="0.1" fill="#E6E7E8" width="0.2" height="127.8"/>
			<rect x="2.7" y="0.1" fill="#E6E7E8" width="0.2" height="127.8"/>
			<rect x="0.1" y="63.9" fill="#D0D2D3" width="127.8" height="0.2"/>
			<rect x="63.9" y="0.1" fill="#D0D2D3" width="0.2" height="127.8"/>
			
				<rect x="63.9" y="-26.3" transform="matrix(0.7071 0.7071 -0.7071 0.7071 64 -26.5097)" fill="#D0D2D3" width="0.2" height="180.7"/>
			
				<rect x="-26.3" y="63.9" transform="matrix(0.7071 0.7071 -0.7071 0.7071 64 -26.5097)" fill="#D0D2D3" width="180.7" height="0.2"/>
			<path fill="#D0D2D3" d="M64,90.7c-14.7,0-26.7-12-26.7-26.7s12-26.7,26.7-26.7s26.7,12,26.7,26.7S78.7,90.7,64,90.7z M64,37.5
				c-14.6,0-26.5,11.9-26.5,26.5S49.4,90.5,64,90.5c14.6,0,26.5-11.9,26.5-26.5S78.6,37.5,64,37.5z"/>
		</g>
		<path fill="#BBBDBF" d="M98.5,122.7H29.4c-4.5,0-8.1-3.6-8.1-8.1V13.5c0-4.5,3.6-8.1,8.1-8.1h69.1c4.5,0,8.1,3.6,8.1,8.1v101.1
			C106.7,119,103,122.7,98.5,122.7z M29.4,5.6c-4.3,0-7.9,3.5-7.9,7.9v101.1c0,4.3,3.5,7.9,7.9,7.9h69.1c4.3,0,7.9-3.5,7.9-7.9V13.5
			c0-4.3-3.5-7.9-7.9-7.9H29.4z"/>
		<path fill="#BBBDBF" d="M114.5,106.7H13.4c-4.5,0-8.1-3.6-8.1-8.1V29.5c0-4.5,3.6-8.1,8.1-8.1h101.1c4.5,0,8.1,3.6,8.1,8.1v69.1
			C122.6,103,119,106.7,114.5,106.7z M13.4,21.6c-4.3,0-7.9,3.5-7.9,7.9v69.1c0,4.3,3.5,7.9,7.9,7.9h101.1c4.3,0,7.9-3.5,7.9-7.9
			V29.5c0-4.3-3.5-7.9-7.9-7.9H13.4z"/>
		<path fill="#BBBDBF" d="M106.4,114.7h-85c-4.5,0-8.2-3.7-8.2-8.2v-85c0-4.5,3.7-8.2,8.2-8.2h85c4.5,0,8.2,3.7,8.2,8.2v85
			C114.6,111,111,114.7,106.4,114.7z M21.4,13.6c-4.4,0-7.9,3.6-7.9,7.9v85c0,4.4,3.6,7.9,7.9,7.9h85c4.4,0,7.9-3.6,7.9-7.9v-85
			c0-4.4-3.6-7.9-7.9-7.9H21.4z"/>
	</g>
</g>
<g id="working_Files" display="none">
</g>
<g id="IconFinals">
	<g>
		<g>
			<path fill="#FFFFFF" d="M82,73L82,73C81.9,73,81.9,73,82,73C81.9,73,82,73,82,73z"/>
			<g>
				<path fill="#CBCACA" d="M73.9,69.2c-1.4-1.8-2.3-4.1-2.3-6.5c0-0.2,0-0.3,0-0.4c-2.7-2.2-6.1-3.4-9.6-3.4h-5.8c0,0,0,0-0.1,0
					c0,0,0,0-0.1,0h-5.8c-8.5,0-15.4,6.9-15.4,15.4v5.3c0,2.5,1.3,4.7,3.5,5.8C41.3,87.1,46.9,89,56,89c4.5,0,8.1-0.5,11-1.2
					c-0.7-1.2-1.1-2.5-1.1-3.9v-3.1C65.9,75.6,69.2,71,73.9,69.2z"/>
				<path fill="#CBCACA" d="M56,54h0.1c6.3,0,11.5-5.2,11.5-11.5C67.6,36.1,62.4,31,56,31c-6.4,0-11.5,5.2-11.5,11.5
					C44.5,48.8,49.6,54,56,54z"/>
				<path fill="#CBCACA" d="M81.2,68.2c0.2,0,0.4,0,0.7,0H82c3.1,0,5.6-2.5,5.6-5.6c0-3.1-2.5-5.6-5.6-5.6c-2.3,0-4.4,1.4-5.2,3.5
					c-0.3,0.7-0.4,1.4-0.4,2.1C76.3,65.5,78.5,67.8,81.2,68.2z"/>
				<path fill="#CBCACA" d="M64,5C31.4,5,5,31.4,5,64s26.4,59,59,59c32.6,0,59-26.4,59-59S96.6,5,64,5z M98,83.9
					c0,2.8-1.5,5.4-4,6.7c-3.2,1.7-7.2,2.5-12,2.5c-3.9,0-7.3-0.6-10.2-1.7c-3.8,1.3-8.9,2.4-15.8,2.4c-10,0-16.4-2.3-20-4.2
					c-3.7-2-6-5.8-6-10.1v-5.3c0-9.4,6.5-17.4,15.3-19.6c-3.3-3-5.5-7.3-5.5-12.1c0-9,7.3-16.3,16.3-16.3c9,0,16.3,7.3,16.3,16.3
					c0,4.8-2.1,9.2-5.5,12.1c2.2,0.5,4.3,1.5,6.1,2.7c1.8-3,5.1-5.1,8.9-5.1c5.7,0,10.4,4.7,10.4,10.4c0,2.5-0.9,4.7-2.3,6.5
					c1.6,0.6,3,1.6,4.3,2.8c2.4,2.4,3.7,5.6,3.7,8.9V83.9z"/>
				<path fill="#CBCACA" d="M85.3,73h-3.2H82h-0.1h-3.4c-0.4,0-0.8,0-1.2,0.1c-3.8,0.6-6.6,3.8-6.6,7.8v3.1c0,0.9,0.5,1.8,1.3,2.3
					c0.1,0,0.1,0.1,0.2,0.1c1.2,0.6,3.2,1.4,6,1.7c1.1,0.1,2.3,0.2,3.7,0.2c5,0,8.1-1.1,9.8-2c0.9-0.5,1.5-1.4,1.5-2.5v-3
					c0-2.1-0.8-4.1-2.3-5.6S87.4,73,85.3,73z"/>
			</g>
		</g>
	</g>
</g>
<g id="Layer_3" display="none">
</g>
<g id="IconBoxes" display="none">
</g>
<g id="Measurements" display="none">
</g>
<g id="MeasureGrid" display="none">
</g>
</svg>
