<?xml version="1.0" encoding="utf-8"?>
<!-- Generator: Adobe Illustrator 18.1.1, SVG Export Plug-In . SVG Version: 6.00 Build 0)  -->
<svg version="1.1" xmlns="http://www.w3.org/2000/svg" xmlns:xlink="http://www.w3.org/1999/xlink" x="0px" y="0px"
	 viewBox="0 0 128 128" enable-background="new 0 0 128 128" xml:space="preserve">
<symbol  id="Light_Keyboard_Primary_2" viewBox="0 -78 52 78">
	<path fill="#878A8E" d="M45-76H7c-3.9,0-7,3.1-7,7v-2c0-3.9,3.1-7,7-7h38c3.9,0,7,3.1,7,7v2C52-72.9,48.9-76,45-76z"/>
	<g>
		<path fill="#616565" d="M45-76H7c-3.9,0-7,3.1-7,7v62c0,3.9,3.1,7,7,7h38c3.9,0,7-3.1,7-7v-62C52-72.9,48.9-76,45-76z"/>
	</g>
</symbol>
<symbol  id="Light_Keyboard_Secondary_Inactive_2" viewBox="0 -78 52 78">
	<path fill="#878A8E" d="M48.9-74.8c-0.2-0.1-0.4-0.2-0.6-0.4c-1-0.5-2.1-0.8-3.3-0.8H7c-1.2,0-2.3,0.3-3.3,0.8
		c-0.2,0.1-0.4,0.2-0.6,0.4c-1.7,1.1-2.8,3-3.1,5.1c0,0.2,0,0.5,0,0.7v-2c0-3.9,3.1-7,7-7h38c3.9,0,7,3.1,7,7v2c0-0.2,0-0.5,0-0.7
		C51.7-71.8,50.6-73.7,48.9-74.8z"/>
	<g>
		<path fill="#616565" d="M45-76H7c-3.9,0-7,3.1-7,7v62c0,3.9,3.1,7,7,7h38c3.9,0,7-3.1,7-7v-62C52-72.9,48.9-76,45-76z"/>
	</g>
</symbol>
<g id="IconGrids" display="none">
	<g display="inline">
		<rect x="0.1" y="0.1" fill="#FFFFFF" width="127.8" height="127.8"/>
		<g>
			<path fill="#E6E7E8" d="M128,128H0V0h128V128z M0.2,127.8h127.5V0.2H0.2V127.8z"/>
			<rect x="0.1" y="125.1" fill="#E6E7E8" width="127.8" height="0.2"/>
			<rect x="0.1" y="122.4" fill="#E6E7E8" width="127.8" height="0.2"/>
			<rect x="0.1" y="119.8" fill="#E6E7E8" width="127.8" height="0.2"/>
			<rect x="0.1" y="117.1" fill="#E6E7E8" width="127.8" height="0.2"/>
			<rect x="0.1" y="114.4" fill="#E6E7E8" width="127.8" height="0.2"/>
			<rect x="0.1" y="111.8" fill="#E6E7E8" width="127.8" height="0.2"/>
			<rect x="0.1" y="109.1" fill="#E6E7E8" width="127.8" height="0.2"/>
			<rect x="0.1" y="106.5" fill="#E6E7E8" width="127.8" height="0.2"/>
			<rect x="0.1" y="103.8" fill="#E6E7E8" width="127.8" height="0.2"/>
			<rect x="0.1" y="101.1" fill="#E6E7E8" width="127.8" height="0.2"/>
			<rect x="0.1" y="98.5" fill="#E6E7E8" width="127.8" height="0.2"/>
			<rect x="0.1" y="95.8" fill="#E6E7E8" width="127.8" height="0.2"/>
			<rect x="0.1" y="93.2" fill="#E6E7E8" width="127.8" height="0.2"/>
			<rect x="0.1" y="90.5" fill="#E6E7E8" width="127.8" height="0.2"/>
			<rect x="0.1" y="87.8" fill="#E6E7E8" width="127.8" height="0.2"/>
			<rect x="0.1" y="85.2" fill="#E6E7E8" width="127.8" height="0.2"/>
			<rect x="0.1" y="82.5" fill="#D0D2D3" width="127.8" height="0.2"/>
			<rect x="0.1" y="79.8" fill="#E6E7E8" width="127.8" height="0.2"/>
			<rect x="0.1" y="77.2" fill="#E6E7E8" width="127.8" height="0.2"/>
			<rect x="0.1" y="74.5" fill="#E6E7E8" width="127.8" height="0.2"/>
			<rect x="0.1" y="71.9" fill="#E6E7E8" width="127.8" height="0.2"/>
			<rect x="0.1" y="69.2" fill="#E6E7E8" width="127.8" height="0.2"/>
			<rect x="0.1" y="66.5" fill="#E6E7E8" width="127.8" height="0.2"/>
			<rect x="0.1" y="61.2" fill="#E6E7E8" width="127.8" height="0.2"/>
			<rect x="0.1" y="58.6" fill="#E6E7E8" width="127.8" height="0.2"/>
			<rect x="0.1" y="55.9" fill="#E6E7E8" width="127.8" height="0.2"/>
			<rect x="0.1" y="53.2" fill="#E6E7E8" width="127.8" height="0.2"/>
			<rect x="0.1" y="50.6" fill="#E6E7E8" width="127.8" height="0.2"/>
			<rect x="0.1" y="47.9" fill="#E6E7E8" width="127.8" height="0.2"/>
			<rect x="0.1" y="45.2" fill="#D0D2D3" width="127.8" height="0.2"/>
			<rect x="0.1" y="42.6" fill="#E6E7E8" width="127.8" height="0.2"/>
			<rect x="0.1" y="39.9" fill="#E6E7E8" width="127.8" height="0.2"/>
			<rect x="0.1" y="37.3" fill="#E6E7E8" width="127.8" height="0.2"/>
			<rect x="0.1" y="34.6" fill="#E6E7E8" width="127.8" height="0.2"/>
			<rect x="0.1" y="31.9" fill="#E6E7E8" width="127.8" height="0.2"/>
			<rect x="0.1" y="29.3" fill="#E6E7E8" width="127.8" height="0.2"/>
			<rect x="0.1" y="26.6" fill="#E6E7E8" width="127.8" height="0.2"/>
			<rect x="0.1" y="24" fill="#E6E7E8" width="127.8" height="0.2"/>
			<rect x="0.1" y="21.3" fill="#E6E7E8" width="127.8" height="0.2"/>
			<rect x="0.1" y="18.6" fill="#E6E7E8" width="127.8" height="0.2"/>
			<rect x="0.1" y="16" fill="#E6E7E8" width="127.8" height="0.2"/>
			<rect x="0.1" y="13.3" fill="#E6E7E8" width="127.8" height="0.2"/>
			<rect x="0.1" y="10.6" fill="#E6E7E8" width="127.8" height="0.2"/>
			<rect x="0.1" y="8" fill="#E6E7E8" width="127.8" height="0.2"/>
			<rect x="0.1" y="5.3" fill="#E6E7E8" width="127.8" height="0.2"/>
			<rect x="0.1" y="2.7" fill="#E6E7E8" width="127.8" height="0.2"/>
			<rect x="125.1" y="0.1" fill="#E6E7E8" width="0.2" height="127.8"/>
			<rect x="122.4" y="0.1" fill="#E6E7E8" width="0.2" height="127.8"/>
			<rect x="119.8" y="0.1" fill="#E6E7E8" width="0.2" height="127.8"/>
			<rect x="117.1" y="0.1" fill="#E6E7E8" width="0.2" height="127.8"/>
			<rect x="114.4" y="0.1" fill="#E6E7E8" width="0.2" height="127.8"/>
			<rect x="111.8" y="0.1" fill="#E6E7E8" width="0.2" height="127.8"/>
			<rect x="109.1" y="0.1" fill="#E6E7E8" width="0.2" height="127.8"/>
			<rect x="106.5" y="0.1" fill="#E6E7E8" width="0.2" height="127.8"/>
			<rect x="103.8" y="0.1" fill="#E6E7E8" width="0.2" height="127.8"/>
			<rect x="101.1" y="0.1" fill="#E6E7E8" width="0.2" height="127.8"/>
			<rect x="98.5" y="0.1" fill="#E6E7E8" width="0.2" height="127.8"/>
			<rect x="95.8" y="0.1" fill="#E6E7E8" width="0.2" height="127.8"/>
			<rect x="93.2" y="0.1" fill="#E6E7E8" width="0.2" height="127.8"/>
			<rect x="90.5" y="0.1" fill="#E6E7E8" width="0.2" height="127.8"/>
			<rect x="87.8" y="0.1" fill="#E6E7E8" width="0.2" height="127.8"/>
			<rect x="85.2" y="0.1" fill="#E6E7E8" width="0.2" height="127.8"/>
			<rect x="82.5" y="0.1" fill="#D0D2D3" width="0.2" height="127.8"/>
			<rect x="79.8" y="0.1" fill="#E6E7E8" width="0.2" height="127.8"/>
			<rect x="77.2" y="0.1" fill="#E6E7E8" width="0.2" height="127.8"/>
			<rect x="74.5" y="0.1" fill="#E6E7E8" width="0.2" height="127.8"/>
			<rect x="71.9" y="0.1" fill="#E6E7E8" width="0.2" height="127.8"/>
			<rect x="69.2" y="0.1" fill="#E6E7E8" width="0.2" height="127.8"/>
			<rect x="66.5" y="0.1" fill="#E6E7E8" width="0.2" height="127.8"/>
			<rect x="61.2" y="0.1" fill="#E6E7E8" width="0.2" height="127.8"/>
			<rect x="58.6" y="0.1" fill="#E6E7E8" width="0.2" height="127.8"/>
			<rect x="55.9" y="0.1" fill="#E6E7E8" width="0.2" height="127.8"/>
			<rect x="53.2" y="0.1" fill="#E6E7E8" width="0.2" height="127.8"/>
			<rect x="50.6" y="0.1" fill="#E6E7E8" width="0.2" height="127.8"/>
			<rect x="47.9" y="0.1" fill="#E6E7E8" width="0.2" height="127.8"/>
			<rect x="45.2" y="0.1" fill="#D0D2D3" width="0.2" height="127.8"/>
			<rect x="42.6" y="0.1" fill="#E6E7E8" width="0.2" height="127.8"/>
			<rect x="39.9" y="0.1" fill="#E6E7E8" width="0.2" height="127.8"/>
			<rect x="37.3" y="0.1" fill="#E6E7E8" width="0.2" height="127.8"/>
			<rect x="34.6" y="0.1" fill="#E6E7E8" width="0.2" height="127.8"/>
			<rect x="31.9" y="0.1" fill="#E6E7E8" width="0.2" height="127.8"/>
			<rect x="29.3" y="0.1" fill="#E6E7E8" width="0.2" height="127.8"/>
			<rect x="26.6" y="0.1" fill="#E6E7E8" width="0.2" height="127.8"/>
			<rect x="24" y="0.1" fill="#E6E7E8" width="0.2" height="127.8"/>
			<rect x="21.3" y="0.1" fill="#E6E7E8" width="0.2" height="127.8"/>
			<rect x="18.6" y="0.1" fill="#E6E7E8" width="0.2" height="127.8"/>
			<rect x="16" y="0.1" fill="#E6E7E8" width="0.2" height="127.8"/>
			<rect x="13.3" y="0.1" fill="#E6E7E8" width="0.2" height="127.8"/>
			<rect x="10.6" y="0.1" fill="#E6E7E8" width="0.2" height="127.8"/>
			<rect x="8" y="0.1" fill="#E6E7E8" width="0.2" height="127.8"/>
			<rect x="5.3" y="0.1" fill="#E6E7E8" width="0.2" height="127.8"/>
			<rect x="2.7" y="0.1" fill="#E6E7E8" width="0.2" height="127.8"/>
			<rect x="0.1" y="63.9" fill="#D0D2D3" width="127.8" height="0.2"/>
			<rect x="63.9" y="0.1" fill="#D0D2D3" width="0.2" height="127.8"/>
			
				<rect x="63.9" y="-26.3" transform="matrix(0.7071 0.7071 -0.7071 0.7071 63.9999 -26.5097)" fill="#D0D2D3" width="0.2" height="180.7"/>
			
				<rect x="-26.3" y="63.9" transform="matrix(0.7071 0.7071 -0.7071 0.7071 63.9999 -26.5097)" fill="#D0D2D3" width="180.7" height="0.2"/>
			<path fill="#D0D2D3" d="M64,90.7c-14.7,0-26.7-12-26.7-26.7s12-26.7,26.7-26.7s26.7,12,26.7,26.7S78.7,90.7,64,90.7z M64,37.5
				c-14.6,0-26.5,11.9-26.5,26.5S49.4,90.5,64,90.5c14.6,0,26.5-11.9,26.5-26.5S78.6,37.5,64,37.5z"/>
		</g>
		<path fill="#BBBDBF" d="M98.5,122.7H29.4c-4.5,0-8.1-3.6-8.1-8.1V13.5c0-4.5,3.6-8.1,8.1-8.1h69.1c4.5,0,8.1,3.6,8.1,8.1v101.1
			C106.7,119,103,122.7,98.5,122.7z M29.4,5.6c-4.3,0-7.9,3.5-7.9,7.9v101.1c0,4.3,3.5,7.9,7.9,7.9h69.1c4.3,0,7.9-3.5,7.9-7.9V13.5
			c0-4.3-3.5-7.9-7.9-7.9H29.4z"/>
		<path fill="#BBBDBF" d="M114.5,106.7H13.4c-4.5,0-8.1-3.6-8.1-8.1V29.5c0-4.5,3.6-8.1,8.1-8.1h101.1c4.5,0,8.1,3.6,8.1,8.1v69.1
			C122.6,103,119,106.7,114.5,106.7z M13.4,21.6c-4.3,0-7.9,3.5-7.9,7.9v69.1c0,4.3,3.5,7.9,7.9,7.9h101.1c4.3,0,7.9-3.5,7.9-7.9
			V29.5c0-4.3-3.5-7.9-7.9-7.9H13.4z"/>
		<path fill="#BBBDBF" d="M106.4,114.7h-85c-4.5,0-8.2-3.7-8.2-8.2v-85c0-4.5,3.7-8.2,8.2-8.2h85c4.5,0,8.2,3.7,8.2,8.2v85
			C114.6,111,111,114.7,106.4,114.7z M21.4,13.6c-4.4,0-7.9,3.6-7.9,7.9v85c0,4.4,3.6,7.9,7.9,7.9h85c4.4,0,7.9-3.6,7.9-7.9v-85
			c0-4.4-3.6-7.9-7.9-7.9H21.4z"/>
	</g>
</g>
<g id="working_Files" display="none">
</g>
<g id="IconFinals">
	<g>
		<path fill="none" d="M41.8,85.9c1.1-0.6,1.5-2,0.9-3.1l-4.5-8.3l-3.7-6.9l-1.8-3.3c-0.4-0.7-1.2-1.2-2-1.2c-0.4,0-0.7,0.1-1.1,0.3
			l-10,5.4c-1.1,0.6-1.5,2-0.9,3.1l10,18.5c0.6,1.1,2,1.5,3.1,0.9l0.6-0.3l5.4-2.9L41.8,85.9z"/>
		<path fill="none" d="M64.4,53.9h0.2c8,0,14.4-6.5,14.4-14.5c0-8-6.5-14.5-14.5-14.5c-8,0-14.5,6.5-14.5,14.5
			C49.9,47.4,56.4,53.9,64.4,53.9z"/>
		<path fill="none" d="M71.9,59.9h-7.4c0,0-0.1,0-0.1,0s-0.1,0-0.1,0H57c-6.4,0-12,3.1-15.5,7.8L48,79.9c2.2,4,0.7,9.1-3.4,11.2
			L41.3,93c0.2,0.2,0.5,0.3,0.7,0.5C46,95.5,53,98,64.4,98c11.4,0,18.5-2.5,22.5-4.6c2.7-1.4,4.4-4.3,4.4-7.4v-6.7
			c0-5.2-2-10.1-5.7-13.7C82,62,77.1,59.9,71.9,59.9z"/>
		<path fill="#CBCACA" d="M89.9,61.4c-3.3-3.3-7.4-5.6-11.8-6.7c4.2-3.8,6.9-9.2,6.9-15.3c0-11.3-9.2-20.5-20.5-20.5
			c-11.3,0-20.5,9.2-20.5,20.5c0,6.1,2.7,11.5,6.9,15.3c-4.8,1.2-9.1,3.8-12.4,7.4L38,61.4c-1.5-2.7-4.3-4.3-7.3-4.3
			c-1.4,0-2.7,0.3-3.9,1l-10,5.4c-4,2.2-5.5,7.2-3.4,11.2l10,18.5c1.5,2.7,4.3,4.3,7.3,4.3c1.4,0,2.7-0.3,3.9-1l0.9-0.5
			c1,1.1,2.2,2,3.6,2.7c4.5,2.4,12.6,5.3,25.2,5.3c12.6,0,20.7-2.9,25.3-5.3c4.7-2.5,7.6-7.3,7.6-12.7v-6.7
			C97.3,72.6,94.7,66.2,89.9,61.4z M49.9,39.4c0-8,6.5-14.5,14.5-14.5c8,0,14.5,6.5,14.5,14.5c0,8-6.5,14.5-14.4,14.5h-0.2
			C56.4,53.9,49.9,47.4,49.9,39.4z M31.9,91.3c-1.1,0.6-2.5,0.1-3.1-0.9l-10-18.5c-0.6-1.1-0.2-2.5,0.9-3.1l10-5.4
			c0.3-0.2,0.7-0.3,1.1-0.3c0.9,0,1.6,0.5,2,1.2l1.8,3.3l3.7,6.9l4.5,8.3c0.6,1.1,0.2,2.5-0.9,3.1l-4,2.2l-5.4,2.9L31.9,91.3z
			 M91.3,86c0,3.1-1.7,5.9-4.4,7.4c-4,2.1-11.1,4.6-22.5,4.6C53,98,46,95.5,42,93.4c-0.3-0.1-0.5-0.3-0.7-0.5l3.4-1.8
			c4-2.2,5.5-7.2,3.4-11.2l-6.6-12.1C45,63,50.7,59.9,57,59.9h7.3c0,0,0.1,0,0.1,0s0.1,0,0.1,0h7.4c5.2,0,10.1,2,13.7,5.7
			c3.7,3.7,5.7,8.6,5.7,13.7V86z"/>
	</g>
</g>
<g id="Layer_3" display="none">
</g>
<g id="IconBoxes" display="none">
	<rect x="50.5" y="-103" display="inline" opacity="0.5" fill="#FFFFFF" width="128" height="128"/>
	<rect x="-107.2" y="-103" display="inline" opacity="0.5" fill="#FFFFFF" width="128" height="128"/>
</g>
<g id="Measurements" display="none">
</g>
<g id="MeasureGrid" display="none">
</g>
</svg>
