<svg xmlns="http://www.w3.org/2000/svg" viewBox="0 0 110 110" enable-background="new 0 0 110 110"><path fill="#E861A3" d="M41.9 83.9c-20.3 0-36.9-16.7-36.9-37.3s16.6-37.2 36.9-37.2 36.9 16.7 36.9 37.3-16.5 37.2-36.9 37.2zm0-63c-14.1 0-25.5 11.5-25.5 25.7s11.4 25.7 25.5 25.7 25.5-11.5 25.5-25.7-11.4-25.7-25.5-25.7z" opacity=".59"/><path fill="#6375B9" d="M63.5 108c-20.4 0-36.9-16.7-36.9-37.3s16.6-37.3 36.9-37.3c20.4 0 36.9 16.7 36.9 37.3s-16.5 37.3-36.9 37.3zm0-63c-14 0-25.5 11.6-25.5 25.7s11.4 25.7 25.5 25.7c14 0 25.5-11.5 25.5-25.7s-11.4-25.7-25.5-25.7z" opacity=".59"/><path fill="#95C93F" d="M68.1 76.5c-20.4 0-36.9-16.7-36.9-37.3s16.5-37.2 36.9-37.2c20.3 0 36.9 16.7 36.9 37.3s-16.6 37.2-36.9 37.2zm0-63c-14.1 0-25.5 11.5-25.5 25.7s11.4 25.8 25.5 25.8c14 0 25.5-11.5 25.5-25.7s-11.5-25.8-25.5-25.8z" opacity=".59"/></svg>