<svg xmlns="http://www.w3.org/2000/svg" viewBox="242.6 0 110 110" enable-background="new 242.6 0 110 110"><path d="M278.1 110h-.1c-.6-.1-.9-.6-.9-1.2.2-1.8.9-3 2.1-3.9.9-.7 2.1-.9 2.9-1.1l-.2-12c0-.6.5-1.1 1.1-1.1.6 0 1.1.5 1.1 1.1l.4 13.1c0 .4-.1.6-.4.8-.2.2-.6.2-.8.2-.6-.1-3.4-.2-3.9 3.2-.2.5-.7.9-1.3.9zM289.7 109.3c-.5 0-.9-.4-1.1-.9-.2-1.8.1-3.2.9-4.3.7-.9 1.8-1.5 2.5-1.8l-3.5-11.5c-.1-.6.1-1.2.7-1.3.6-.1 1.2.1 1.3.7l3.9 12.5c.1.2 0 .6-.1.8s-.5.5-.7.5c-.6.1-3.3.7-2.8 4.1.1.6-.4 1.1-.8 1.2h-.3z" fill="#231F20"/><path d="M339.2 63.3l-2.6-3.3-7.1 4.4c-4.6 1.5-8.8-3-8.8-3-3.4-.9-10.5-16.8-10.5-16.8-1.3-5.6-7.5-17.4-7.5-17.4-7.7-11.2-20.8-8.8-20.8-8.8-13.7-.6-24.6 20.6-24.6 20.6-4.3 9.4-.6 27.7-.6 27.7 11.3 31.7 40.6 25.7 40.6 25.7 23-4.6 32.7-17 36.1-22.7 3.5-5.2 5.8-6.4 5.8-6.4z" fill="#92D2C9"/><path d="M336.2 62.6s-3.4-9.8-1.2-13.2c2.2-3.4 2.9-.7 3.2 2.2.2 2.9 1.5 6.3 1.5 6.3l-3.5 4.7zM336.5 61.9s5.4 6.7 8.2 5.4c2.8-1.3-1.5-3.4-3-6.1-1.5-2.6-1.9-3.4-1.9-3.4l-3.3 4.1zM339.3 61.6s10.2-4.4 1.8-3.7c-8.6.5-1.8 3.7-1.8 3.7z" fill="#93D1C9"/><path d="M337.2 61.6c-.6 1.3-1.1 1.1-1.6.8l-6.8-1.6c-1.1-.5-1.6-2-1.2-3.3.6-1.3 1.8-2.1 3.2-1.4l5.8 3.7c.7.3 1.2.5.6 1.8zM337.1 61.8c-1.2-.7-.9-1.2-.6-1.8l2.7-6.4c.6-.9 2.2-1.3 3.4-.6 1.2.7 1.8 2.1.9 3.3l-4.7 5.3c-.3.6-.6.9-1.7.2zM337.1 60.6c1.4-.4 1.5.2 1.6.8l2.6 6.4c.2 1.1-.6 2.6-2 2.8-1.4.4-2.8-.2-2.9-1.8l-.4-7c-.2-.3-.2-.8 1.1-1.2z" fill="#D04947"/><path d="M338.5 62.2c-.4.7-1.2 1.1-2 .8-.7-.4-1.1-1.2-.8-2 .4-.7 1.2-1.1 2-.8.8.3 1.1 1.1.8 2z" fill="#FDC34D"/><path d="M257.2 39.1s-6-9.4-5-9.4l10.5.6-5.5 8.8z" fill="#504439" stroke="#504439" stroke-width=".022" stroke-miterlimit="10"/><ellipse cx="271.2" cy="38.4" rx="1.9" ry="2" fill="#504439" stroke="#504439" stroke-width=".022" stroke-miterlimit="10"/><path d="M276.1 52.6s8.4-8.1 16.1-.9c0 0 15.6 17.4 24.2 13.5 0 0 4.7 7.1-17.8 14.6 0 0-18 1.5-24.2-13.7.2-.2-2.3-9.2 1.7-13.5z" fill="#63B7AE"/><path d="M298.3 82c-.4 0-.7-.4-.7-.7 0-.4.4-.7.7-.7h1.4l.5-.1c.4-.1.7.1.8.5s-.1.7-.5.8l-.5.1c-.1 0-.7.1-1.7.1zm-2.1-.1c-.7 0-1.4-.1-2.1-.2-.4 0-.7-.4-.6-.8 0-.4.4-.7.8-.6.7.1 1.3.1 2 .1.4 0 .7.4.7.7-.1.6-.4.8-.8.8zm-4.1-.4h-.1c-.7-.1-1.4-.2-2.1-.5-.4-.1-.6-.5-.5-.8.1-.4.5-.6.8-.5.7.1 1.3.2 2 .4.4.1.6.5.6.8s-.3.6-.7.6zm10.2-.4c-.2 0-.6-.1-.7-.5s0-.7.5-.9c.7-.2 1.3-.5 1.9-.7.4-.1.7 0 .9.4.1.4 0 .7-.4.9-.6.2-1.3.5-2 .7-.1.1-.1.1-.2.1zm-14.1-.6h-.2l-2-.7c-.4-.1-.6-.6-.4-.9.1-.4.6-.6.9-.4l1.9.7c.4.1.6.5.5.8-.1.4-.4.5-.7.5zm18-.9c-.2 0-.5-.1-.6-.5-.1-.4 0-.7.4-.9.7-.2 1.3-.6 1.9-.8.4-.1.7 0 .9.4.1.4 0 .7-.4.9l-1.9.8c-.2.1-.2.1-.3.1zm-21.9-.5c-.1 0-.2 0-.2-.1-.7-.4-1.3-.6-1.9-.9-.4-.2-.5-.6-.2-.9.2-.4.6-.5.9-.2.6.4 1.2.6 1.8.9.4.1.5.6.4.9-.2.2-.6.3-.8.3zm25.6-1.1c-.2 0-.5-.1-.6-.4-.1-.4 0-.7.4-.9.6-.4 1.3-.6 1.8-.9.4-.2.7 0 .9.2.2.4.1.7-.2.9-.6.4-1.2.6-1.9.9-.1.2-.3.2-.4.2zm-29.2-.9c-.1 0-.2 0-.4-.1-.6-.4-1.2-.8-1.8-1.3-.4-.2-.4-.7-.1-.9.2-.4.7-.4.9-.1.5.5 1.1.8 1.6 1.2.4.2.4.6.2.9 0 .2-.2.3-.4.3zm32.8-1.1c-.2 0-.5-.1-.6-.4-.2-.4-.1-.7.2-.9.6-.4 1.2-.7 1.6-1.2.4-.2.7-.1.9.1.2.4.1.7-.1.9l-1.8 1.2c.1.3 0 .3-.2.3zm-36-1.4c-.1 0-.4-.1-.5-.2-.5-.5-1.1-1.1-1.4-1.5-.2-.2-.2-.7.1-.9.2-.2.7-.2.9.1l1.4 1.4c.2.2.2.7 0 .9-.1 0-.2.2-.5.2zm39.3-1c-.2 0-.4-.1-.5-.2-.2-.2-.2-.7.1-.9.6-.5 1.1-.9 1.4-1.4.2-.2.7-.4.9 0 .2.2.4.7 0 .9l-1.5 1.5s-.1.1-.4.1zm-42-2.2c-.2 0-.5-.1-.6-.2-.5-.6-.8-1.2-1.2-1.8-.2-.4-.1-.7.2-.9.4-.2.7-.1.9.2.4.6.7 1.2 1.1 1.6.2.4.1.7-.1.9 0 .2-.2.2-.3.2zm44.8-.9c-.1 0-.2 0-.4-.1-.4-.2-.5-.6-.2-.9.4-.6.6-1.2.8-1.6.1-.4.5-.6.8-.5.4.1.6.5.5.8-.2.7-.5 1.4-.9 2-.2.2-.3.3-.6.3zm-46.9-2.6c-.2 0-.5-.1-.6-.4l-.8-1.8v-.30000000000000004c-.1-.4.1-.7.5-.8s.7.1.8.5v.1c.2.6.5 1.1.7 1.6.1.4 0 .7-.4.9.1.2-.1.2-.2.2zm48-1.3c-.4 0-.7-.2-.7-.6l-.1-.7c-.4 0-.6-.1-.7-.5s0-.7.4-.9l.5-.2c.4-.1.7 0 .8.2 0 .1.5.7.6 1.8-.1.6-.4.9-.8.9zm-3.9-.8c-.4 0-.8 0-1.3-.1-.4 0-.7-.4-.6-.8 0-.4.4-.6.7-.6.4 0 .7 0 1.1.1h.8c.4 0 .7.2.7.6 0 .4-.2.7-.6.7-.1.1-.4.2-.8.1zm-3.1-.4h-.2c-.7-.1-1.3-.4-2-.7-.4-.1-.6-.6-.4-.9.1-.4.6-.6.9-.4.7.2 1.3.5 1.9.6.4.1.6.5.5.8s-.4.6-.7.6zm-42.3-1.4c-.4 0-.6-.2-.7-.6-.1-.7-.2-1.4-.2-2.1 0-.4.2-.7.6-.7s.7.2.7.6l.2 2c.3.4 0 .7-.6.8zm38.4-.1c-.1 0-.2 0-.4-.1-.6-.4-1.2-.6-1.9-.9-.4-.2-.5-.6-.2-.9.2-.4.6-.5.9-.2.6.4 1.2.7 1.8.9.4.1.5.6.4.9 0 .2-.2.3-.6.3zm-3.5-2.1c-.1 0-.2 0-.4-.1l-1.8-1.2c-.4-.2-.4-.7-.1-.9.2-.4.7-.4.9-.1.6.4 1.2.8 1.6 1.2.4.2.5.6.2.9.1.1-.2.2-.4.2zm-35.2-1.9c-.4 0-.7-.4-.7-.7v-2.2c0-.4.4-.7.7-.6.4 0 .7.4.6.7v2c.1.5-.3.8-.6.8zm31.8-.4c-.1 0-.2 0-.5-.1-.6-.5-1.1-.8-1.6-1.3-.4-.2-.4-.7-.1-.9.2-.4.7-.4.9-.1l1.6 1.3c.4.2.4.7.1.9.1.1-.2.2-.4.2zm-3.2-2.6c-.1 0-.4 0-.5-.1-.6-.5-1.1-.9-1.5-1.4-.2-.2-.4-.7 0-.9.2-.2.7-.4.9 0 .5.5 1.1.9 1.5 1.4.2.2.4.7.1.9-.1 0-.3.1-.5.1zm-28.3-1.1h-.1c-.4-.1-.6-.5-.6-.8.1-.7.4-1.4.6-2.1.1-.4.6-.6.9-.4.4.1.6.6.4.9-.2.6-.4 1.2-.5 1.9-.1.3-.4.5-.7.5zm25.2-1.7c-.1 0-.4-.1-.5-.2l-1.5-1.4c-.2-.2-.2-.7 0-.9.2-.2.7-.2.9 0 .5.5.9.9 1.5 1.4.2.2.2.7 0 .9.1.2-.2.2-.4.2zm-23.8-2.1c-.1 0-.2 0-.4-.1-.4-.2-.5-.6-.2-.9.2-.5.6-.8.9-1.3 0 0 .7-.6 1.8-1.4.4-.2.7-.1.9.1.2.4.1.7-.1.9-.9.7-1.5 1.3-1.5 1.3-.2.2-.6.7-.8 1.1-.1.2-.3.3-.6.3zm20.9-.8c-.2 0-.4-.1-.5-.2l-1.4-1.4c-.2-.2-.2-.7 0-.9s.7-.2.9 0l-.5.5.5-.5.1.1s.5.6 1.4 1.4c.2.2.2.7 0 .9-.2.1-.3.1-.5.1zm-3.1-2.8c-.1 0-.2 0-.4-.1-.6-.4-1.2-.7-1.6-.9-.4-.1-.5-.6-.4-.9.1-.4.6-.5.9-.4l1.9 1.1c.4.2.4.7.2.9-.1.1-.3.3-.6.3zm-13.5 0c-.2 0-.5-.1-.6-.4-.2-.4-.1-.7.2-.9.6-.4 1.3-.7 1.9-.9.4-.1.7 0 .9.4.1.4 0 .7-.4.9-.6.2-1.2.6-1.8.9h-.2zm3.8-1.6c-.4 0-.6-.2-.7-.5-.1-.4.1-.7.5-.8.7-.2 1.4-.4 2.1-.5.4 0 .7.2.7.6s-.2.7-.6.7c-.6.1-1.3.2-1.9.4 0 .1-.1.1-.1.1zm6.1-.1h-.1c-.6-.1-1.3-.2-1.9-.4-.4 0-.7-.4-.6-.7 0-.4.4-.7.7-.6.7 0 1.4.1 2.1.4.4.1.6.5.5.8-.1.3-.5.5-.7.5z" fill="#fff"/><path d="M285.9 16.3l23-15.9c2.2-1.1 4.9 0 6 2.2 1.1 2.2 0 4.9-2.2 6l-25.8 9.4c-2.5 1-3.2-.7-1-1.7z" fill="#D04947"/><path d="M287.3 22.2c.7-2.1-.1-4.4-2.1-5.4-2.2-1.2-4.8-.2-6 1.9-.4.7-.5 1.4-.5 2 0 0 1.5 1.4 4.7 1.9l3.9-.4z" fill="#FDC34D"/><path d="M285.8 20.6l12.9 15.1c1.1 1.5.2 3.9-1.9 5.3-2 1.4-4.6 1.4-5.5-.1l-7-19.2c-1-1.4.5-2.5 1.5-1.1zM279.6 19l-27.1-5.8c-2.3-.9-3.4-3.6-2.5-5.8.9-2.3 3.6-3.4 5.8-2.5l24.4 12.4c2.5.9 1.8 2.6-.6 1.7z" fill="#D04947"/></svg>