<?xml version="1.0" encoding="utf-8"?>
<!-- Generator: Adobe Illustrator 18.1.1, SVG Export Plug-In . SVG Version: 6.00 Build 0)  -->
<svg version="1.1" id="Layer_1" xmlns="http://www.w3.org/2000/svg" xmlns:xlink="http://www.w3.org/1999/xlink" x="0px" y="0px"
	 viewBox="0 0 82 94" style="enable-background:new 0 0 82 94;" xml:space="preserve">
<g>
	<path style="fill:#231F20;" d="M24.3,94c0,0-0.1,0-0.1,0c-0.5-0.1-0.8-0.5-0.8-1c0.2-1.5,0.8-2.6,1.8-3.3c0.8-0.6,1.8-0.8,2.5-0.9
		l-0.2-10.3c0-0.5,0.4-0.9,0.9-0.9c0,0,0,0,0,0c0.5,0,0.9,0.4,0.9,0.9l0.3,11.2c0,0.3-0.1,0.5-0.3,0.7c-0.2,0.2-0.5,0.2-0.7,0.2
		c-0.5-0.1-2.9-0.2-3.3,2.7C25.2,93.7,24.8,94,24.3,94z"/>
	<path style="fill:#231F20;" d="M34.2,93.4c-0.4,0-0.8-0.3-0.9-0.8c-0.2-1.5,0.1-2.7,0.8-3.7c0.6-0.8,1.5-1.3,2.1-1.5l-3-9.8
		c-0.1-0.5,0.1-1,0.6-1.1c0.5-0.1,1,0.1,1.1,0.6l3.3,10.7c0.1,0.2,0,0.5-0.1,0.7c-0.1,0.2-0.4,0.4-0.6,0.4c-0.5,0.1-2.8,0.6-2.4,3.5
		c0.1,0.5-0.3,0.9-0.7,1C34.3,93.4,34.3,93.4,34.2,93.4z"/>
	<path style="fill:#92D2C9;" d="M76.5,54.1l-2.2-2.8l-6.1,3.8c-3.9,1.3-7.5-2.6-7.5-2.6c-2.9-0.8-9-14.4-9-14.4
		c-1.1-4.8-6.4-14.9-6.4-14.9c-6.6-9.6-17.8-7.5-17.8-7.5c-11.7-0.5-21,17.6-21,17.6c-3.7,8-0.5,23.7-0.5,23.7
		C15.7,84.1,40.7,79,40.7,79c19.7-3.9,28-14.5,30.9-19.4C74.6,55.1,76.5,54.1,76.5,54.1z"/>
	<g>
		<g>
			<path style="fill:#93D1C9;" d="M74,53.5c0,0-2.9-8.4-1-11.3c1.9-2.9,2.5-0.6,2.7,1.9c0.2,2.5,1.3,5.4,1.3,5.4L74,53.5z"/>
		</g>
	</g>
	<g>
		<g>
			<path style="fill:#93D1C9;" d="M74.2,52.9c0,0,4.6,5.7,7,4.6c2.4-1.1-1.3-2.9-2.6-5.2c-1.3-2.2-1.6-2.9-1.6-2.9L74.2,52.9z"/>
		</g>
	</g>
	<g>
		<g>
			<path style="fill:#93D1C9;" d="M76.6,52.6c0,0,8.7-3.8,1.5-3.2C70.8,49.9,76.6,52.6,76.6,52.6z"/>
		</g>
	</g>
	<g>
		<g>
			<path style="fill:#D04947;" d="M74.8,52.6c-0.5,1.1-0.9,0.9-1.4,0.7l-5.8-1.4c-0.9-0.4-1.4-1.7-1-2.8l0,0
				c0.5-1.1,1.5-1.8,2.7-1.2l5,3.2C74.9,51.3,75.3,51.5,74.8,52.6L74.8,52.6z"/>
		</g>
	</g>
	<g>
		<g>
			<path style="fill:#D04947;" d="M74.7,52.8c-1-0.6-0.8-1-0.5-1.5l2.3-5.5c0.5-0.8,1.9-1.1,2.9-0.5l0,0c1,0.6,1.5,1.8,0.8,2.8
				l-4,4.5C75.9,53.1,75.7,53.4,74.7,52.8L74.7,52.8z"/>
		</g>
	</g>
	<g>
		<g>
			<path style="fill:#D04947;" d="M74.7,51.8c1.2-0.3,1.3,0.2,1.4,0.7l2.2,5.5c0.2,0.9-0.5,2.2-1.7,2.4l0,0
				c-1.2,0.3-2.4-0.2-2.5-1.5l-0.3-6C73.6,52.5,73.6,52.1,74.7,51.8L74.7,51.8z"/>
		</g>
	</g>
	<g>
		<g>
			<path style="fill:#FDC34D;" d="M75.9,53.1c-0.3,0.6-1,0.9-1.7,0.7c-0.6-0.3-0.9-1-0.7-1.7c0.3-0.6,1-0.9,1.7-0.7
				C75.9,51.7,76.2,52.4,75.9,53.1z"/>
		</g>
	</g>
	<path style="fill:#504439;stroke:#504439;stroke-width:0.9904;stroke-miterlimit:10;" d="M6.4,33.4c0,0-5.1-8-4.3-8s9,0.5,9,0.5
		L6.4,33.4z"/>
	<ellipse style="fill:#504439;stroke:#504439;stroke-width:0.9904;stroke-miterlimit:10;" cx="18.4" cy="32.8" rx="1.6" ry="1.7"/>
	<path style="fill:#63B7AE;" d="M22.6,44.9c0,0,7.2-6.9,13.8-0.8c0,0,13.3,14.9,20.7,11.5c0,0,4,6.1-15.2,12.5
		c0,0-15.4,1.3-20.7-11.7C21.3,56.3,19.2,48.6,22.6,44.9z"/>
	<path style="fill:#FFFFFF;" d="M41.6,70.1c-0.3,0-0.6-0.3-0.6-0.6c0-0.3,0.3-0.6,0.6-0.6c0.6,0,1,0,1.2,0l0.4-0.1
		c0.3-0.1,0.6,0.1,0.7,0.4c0.1,0.3-0.1,0.6-0.4,0.7L43.1,70c0,0-0.1,0-0.1,0C42.9,70,42.4,70.1,41.6,70.1L41.6,70.1z M39.8,70
		C39.8,70,39.8,70,39.8,70c-0.6,0-1.2-0.1-1.8-0.2c-0.3,0-0.6-0.3-0.5-0.7c0-0.3,0.3-0.6,0.7-0.5c0.6,0.1,1.1,0.1,1.7,0.1
		c0.3,0,0.6,0.3,0.6,0.6C40.4,69.8,40.1,70,39.8,70z M36.3,69.6c0,0-0.1,0-0.1,0c-0.6-0.1-1.2-0.2-1.8-0.4c-0.3-0.1-0.5-0.4-0.4-0.7
		c0.1-0.3,0.4-0.5,0.7-0.4c0.6,0.1,1.1,0.2,1.7,0.3c0.3,0.1,0.5,0.4,0.5,0.7C36.9,69.4,36.6,69.6,36.3,69.6z M45,69.3
		c-0.2,0-0.5-0.1-0.6-0.4c-0.1-0.3,0-0.6,0.4-0.8c0.6-0.2,1.1-0.4,1.6-0.6c0.3-0.1,0.6,0,0.8,0.3c0.1,0.3,0,0.6-0.3,0.8
		c-0.5,0.2-1.1,0.4-1.7,0.6C45.1,69.3,45.1,69.3,45,69.3z M32.9,68.8c-0.1,0-0.1,0-0.2,0c-0.6-0.2-1.1-0.4-1.7-0.6
		c-0.3-0.1-0.5-0.5-0.3-0.8c0.1-0.3,0.5-0.5,0.8-0.3c0.5,0.2,1.1,0.4,1.6,0.6c0.3,0.1,0.5,0.4,0.4,0.7
		C33.4,68.7,33.2,68.8,32.9,68.8z M48.3,68c-0.2,0-0.4-0.1-0.5-0.4c-0.1-0.3,0-0.6,0.3-0.8c0.6-0.2,1.1-0.5,1.6-0.7
		c0.3-0.1,0.6,0,0.8,0.3c0.1,0.3,0,0.6-0.3,0.8c-0.5,0.2-1.1,0.5-1.6,0.7C48.4,68,48.4,68,48.3,68z M29.6,67.6c-0.1,0-0.2,0-0.2-0.1
		c-0.6-0.3-1.1-0.5-1.6-0.8c-0.3-0.2-0.4-0.5-0.2-0.8c0.2-0.3,0.5-0.4,0.8-0.2c0.5,0.3,1,0.5,1.5,0.8c0.3,0.1,0.4,0.5,0.3,0.8
		C30.1,67.5,29.8,67.6,29.6,67.6z M51.5,66.6c-0.2,0-0.4-0.1-0.5-0.3c-0.1-0.3,0-0.6,0.3-0.8c0.5-0.3,1.1-0.5,1.5-0.8
		c0.3-0.2,0.6,0,0.8,0.2c0.2,0.3,0.1,0.6-0.2,0.8c-0.5,0.3-1,0.5-1.6,0.8C51.7,66.6,51.6,66.6,51.5,66.6z M26.5,65.9
		c-0.1,0-0.2,0-0.3-0.1c-0.5-0.3-1-0.7-1.5-1.1c-0.3-0.2-0.3-0.6-0.1-0.8c0.2-0.3,0.6-0.3,0.8-0.1c0.4,0.4,0.9,0.7,1.4,1
		c0.3,0.2,0.3,0.5,0.2,0.8C26.9,65.8,26.7,65.9,26.5,65.9z M54.6,64.9c-0.2,0-0.4-0.1-0.5-0.3c-0.2-0.3-0.1-0.6,0.2-0.8
		c0.5-0.3,1-0.6,1.4-1c0.3-0.2,0.6-0.1,0.8,0.1c0.2,0.3,0.1,0.6-0.1,0.8c-0.5,0.3-1,0.7-1.5,1C54.8,64.9,54.7,64.9,54.6,64.9z
		 M23.8,63.7c-0.1,0-0.3-0.1-0.4-0.2c-0.4-0.4-0.9-0.9-1.2-1.3c-0.2-0.2-0.2-0.6,0.1-0.8c0.2-0.2,0.6-0.2,0.8,0.1
		c0.4,0.4,0.8,0.8,1.2,1.2c0.2,0.2,0.2,0.6,0,0.8C24.1,63.6,24,63.7,23.8,63.7z M57.4,62.9c-0.2,0-0.3-0.1-0.4-0.2
		c-0.2-0.2-0.2-0.6,0.1-0.8c0.5-0.4,0.9-0.8,1.2-1.2c0.2-0.2,0.6-0.3,0.8,0c0.2,0.2,0.3,0.6,0,0.8c-0.4,0.4-0.8,0.8-1.3,1.3
		C57.7,62.8,57.6,62.9,57.4,62.9z M21.5,61c-0.2,0-0.4-0.1-0.5-0.2c-0.4-0.5-0.7-1-1-1.5c-0.2-0.3-0.1-0.6,0.2-0.8
		c0.3-0.2,0.6-0.1,0.8,0.2c0.3,0.5,0.6,1,0.9,1.4c0.2,0.3,0.1,0.6-0.1,0.8C21.7,61,21.6,61,21.5,61z M59.8,60.2
		c-0.1,0-0.2,0-0.3-0.1c-0.3-0.2-0.4-0.5-0.2-0.8c0.3-0.5,0.5-1,0.7-1.4c0.1-0.3,0.4-0.5,0.7-0.4c0.3,0.1,0.5,0.4,0.4,0.7
		c-0.2,0.6-0.4,1.2-0.8,1.7C60.1,60.1,60,60.2,59.8,60.2z M19.7,58c-0.2,0-0.4-0.1-0.5-0.3c-0.2-0.5-0.5-1-0.7-1.5c0,0,0,0,0-0.1
		l0-0.2c-0.1-0.3,0.1-0.6,0.4-0.7c0.3-0.1,0.6,0.1,0.7,0.4l0,0.1c0.2,0.5,0.4,0.9,0.6,1.4c0.1,0.3,0,0.6-0.3,0.8
		C19.9,58,19.8,58,19.7,58z M60.7,56.9c-0.3,0-0.6-0.2-0.6-0.5c0-0.2-0.1-0.4-0.1-0.6c-0.3,0-0.5-0.1-0.6-0.4
		c-0.1-0.3,0-0.6,0.3-0.8c0.1,0,0.2-0.1,0.4-0.2c0.3-0.1,0.6,0,0.7,0.2c0,0.1,0.4,0.6,0.5,1.5C61.3,56.6,61.1,56.9,60.7,56.9
		C60.7,56.9,60.7,56.9,60.7,56.9z M57.4,56.2c-0.3,0-0.7,0-1.1-0.1c-0.3,0-0.6-0.3-0.5-0.7c0-0.3,0.3-0.5,0.6-0.5
		c0.3,0,0.6,0,0.9,0.1c0.2,0,0.5,0,0.7,0c0.3,0,0.6,0.2,0.6,0.5c0,0.3-0.2,0.6-0.5,0.6C58,56.2,57.7,56.3,57.4,56.2z M54.7,55.9
		c-0.1,0-0.1,0-0.2,0c-0.6-0.1-1.1-0.3-1.7-0.6c-0.3-0.1-0.5-0.5-0.3-0.8c0.1-0.3,0.5-0.5,0.8-0.3c0.6,0.2,1.1,0.4,1.6,0.5
		c0.3,0.1,0.5,0.4,0.4,0.7C55.2,55.7,55,55.9,54.7,55.9z M18.6,54.7c-0.3,0-0.5-0.2-0.6-0.5c-0.1-0.6-0.2-1.2-0.2-1.8
		c0-0.3,0.2-0.6,0.5-0.6c0.3,0,0.6,0.2,0.6,0.5c0.1,0.6,0.1,1.1,0.2,1.7C19.3,54.3,19.1,54.6,18.6,54.7
		C18.7,54.7,18.7,54.7,18.6,54.7z M51.4,54.6c-0.1,0-0.2,0-0.3-0.1c-0.5-0.3-1-0.5-1.6-0.8c-0.3-0.2-0.4-0.5-0.2-0.8
		c0.2-0.3,0.5-0.4,0.8-0.2c0.5,0.3,1,0.6,1.5,0.8c0.3,0.1,0.4,0.5,0.3,0.8C51.9,54.5,51.7,54.6,51.4,54.6z M48.4,52.8
		c-0.1,0-0.2,0-0.3-0.1c-0.5-0.3-1-0.7-1.5-1c-0.3-0.2-0.3-0.6-0.1-0.8c0.2-0.3,0.6-0.3,0.8-0.1c0.5,0.3,1,0.7,1.4,1
		c0.3,0.2,0.4,0.5,0.2,0.8C48.8,52.7,48.6,52.8,48.4,52.8z M18.3,51.2c-0.3,0-0.6-0.3-0.6-0.6c0-0.2,0-0.3,0-0.5c0-0.5,0-0.9,0-1.4
		c0-0.3,0.3-0.6,0.6-0.5c0.3,0,0.6,0.3,0.5,0.6c0,0.4,0,0.8,0,1.3c0,0.1,0,0.3,0,0.4C18.9,50.9,18.6,51.2,18.3,51.2L18.3,51.2z
		 M45.5,50.8c-0.1,0-0.2,0-0.4-0.1c-0.5-0.4-0.9-0.7-1.4-1.1c-0.3-0.2-0.3-0.6-0.1-0.8c0.2-0.3,0.6-0.3,0.8-0.1
		c0.4,0.4,0.9,0.7,1.4,1.1c0.3,0.2,0.3,0.6,0.1,0.8C45.9,50.7,45.7,50.8,45.5,50.8z M42.8,48.6c-0.1,0-0.3,0-0.4-0.1
		c-0.5-0.4-0.9-0.8-1.3-1.2c-0.2-0.2-0.3-0.6,0-0.8c0.2-0.2,0.6-0.3,0.8,0c0.4,0.4,0.9,0.8,1.3,1.2c0.2,0.2,0.3,0.6,0.1,0.8
		C43.1,48.5,42.9,48.6,42.8,48.6z M18.6,47.7c0,0-0.1,0-0.1,0c-0.3-0.1-0.5-0.4-0.5-0.7c0.1-0.6,0.3-1.2,0.5-1.8
		c0.1-0.3,0.5-0.5,0.8-0.3c0.3,0.1,0.5,0.5,0.3,0.8c-0.2,0.5-0.3,1-0.4,1.6C19.1,47.5,18.8,47.7,18.6,47.7z M40.1,46.2
		c-0.1,0-0.3-0.1-0.4-0.2c-0.5-0.4-0.9-0.9-1.3-1.2c-0.2-0.2-0.2-0.6,0-0.8c0.2-0.2,0.6-0.2,0.8,0c0.4,0.4,0.8,0.8,1.3,1.2
		c0.2,0.2,0.2,0.6,0,0.8C40.5,46.2,40.3,46.2,40.1,46.2z M19.8,44.4c-0.1,0-0.2,0-0.3-0.1c-0.3-0.2-0.4-0.5-0.2-0.8
		c0.2-0.4,0.5-0.7,0.8-1.1c0,0,0.6-0.5,1.5-1.2c0.3-0.2,0.6-0.1,0.8,0.1c0.2,0.3,0.1,0.6-0.1,0.8c-0.8,0.6-1.3,1.1-1.3,1.1
		c-0.2,0.2-0.5,0.6-0.7,0.9C20.2,44.3,20,44.4,19.8,44.4z M37.6,43.7c-0.2,0-0.3-0.1-0.4-0.2c-0.7-0.7-1.1-1.1-1.2-1.2c0,0,0,0,0,0
		c-0.2-0.2-0.2-0.6,0-0.8c0.2-0.2,0.6-0.2,0.8,0l-0.4,0.4l0.4-0.4c0,0,0,0,0.1,0.1c0,0,0.4,0.5,1.2,1.2c0.2,0.2,0.2,0.6,0,0.8
		C37.9,43.7,37.8,43.7,37.6,43.7z M35,41.3c-0.1,0-0.2,0-0.3-0.1c-0.5-0.3-1-0.6-1.4-0.8c-0.3-0.1-0.4-0.5-0.3-0.8
		c0.1-0.3,0.5-0.4,0.8-0.3c0.5,0.3,1.1,0.6,1.6,0.9c0.3,0.2,0.3,0.6,0.2,0.8C35.4,41.2,35.2,41.3,35,41.3z M23.4,41.3
		c-0.2,0-0.4-0.1-0.5-0.3c-0.2-0.3-0.1-0.6,0.2-0.8c0.5-0.3,1.1-0.6,1.6-0.8c0.3-0.1,0.6,0,0.8,0.3c0.1,0.3,0,0.6-0.3,0.8
		c-0.5,0.2-1,0.5-1.5,0.8C23.6,41.3,23.5,41.3,23.4,41.3z M26.7,40c-0.3,0-0.5-0.2-0.6-0.4c-0.1-0.3,0.1-0.6,0.4-0.7
		c0.6-0.2,1.2-0.3,1.8-0.4c0.3,0,0.6,0.2,0.6,0.5c0,0.3-0.2,0.6-0.5,0.6c-0.5,0.1-1.1,0.2-1.6,0.3C26.8,40,26.7,40,26.7,40z
		 M31.9,39.9c0,0-0.1,0-0.1,0c-0.5-0.1-1.1-0.2-1.6-0.3c-0.3,0-0.6-0.3-0.5-0.6c0-0.3,0.3-0.6,0.6-0.5c0.6,0,1.2,0.1,1.8,0.3
		c0.3,0.1,0.5,0.4,0.4,0.7C32.4,39.7,32.1,39.9,31.9,39.9z"/>
	<g>
		<path style="fill:#D04947;" d="M31,13.9L50.7,0.3c1.9-0.9,4.2,0,5.1,1.9l0,0c0.9,1.9,0,4.2-1.9,5.1l-22.1,8
			C29.7,16.2,29.1,14.7,31,13.9z"/>
	</g>
	<path style="fill:#FDC34D;" d="M32.2,18.9c0.6-1.8-0.1-3.8-1.8-4.6c-1.9-1-4.1-0.2-5.1,1.6c-0.3,0.6-0.4,1.2-0.4,1.7
		c0,0,1.3,1.2,4,1.6C31.6,19.6,32.2,18.9,32.2,18.9z"/>
	<g>
		<path style="fill:#D04947;" d="M30.9,17.6l11,12.9c0.9,1.3,0.2,3.3-1.6,4.5l0,0c-1.7,1.2-3.9,1.2-4.7-0.1l-6-16.4
			C28.7,17.3,30,16.4,30.9,17.6z"/>
	</g>
	<g>
		<path style="fill:#D04947;" d="M25.6,16.2l-23.2-5c-2-0.8-2.9-3.1-2.1-5l0,0c0.8-2,3.1-2.9,5-2.1l20.9,10.6
			C28.2,15.5,27.6,17,25.6,16.2z"/>
	</g>
</g>
</svg>
